<?xml version="1.0" encoding="utf-8"?>
<!-- Generator: Adobe Illustrator 24.1.0, SVG Export Plug-In . SVG Version: 6.00 Build 0)  -->
<svg version="1.1" id="Слой_1" xmlns="http://www.w3.org/2000/svg" xmlns:xlink="http://www.w3.org/1999/xlink" x="0px" y="0px"
	 viewBox="0 0 512 512" style="enable-background:new 0 0 512 512;" xml:space="preserve">
<style type="text/css">
	.st0{fill:#5E9CEA;}
	.st1{fill:#E8563F;}
	.st2{fill:#3D7EC4;}
	.st3{fill:#FFFFFF;}
</style>
<path class="st0" d="M511,460c0,28.7-23.3,52-52,52H51c-28.7,0-52-23.3-52-52V52C-1,23.3,22.3,0,51,0h408c28.7,0,52,23.3,52,52V460z
	"/>
<polygon class="st1" points="313.5,209.2 313.2,209.3 313.2,208.9 "/>
<path class="st2" d="M512,305.2V460c0,28.7-23.3,52-52,52H352.3L235.1,394.8l-0.2-0.2c3.9,1,8.2,0,11.3-3.1l1.2-1.2h0l0.3-0.4
	l1.1-0.9c4.7,3.4,11.2,3,15.4-1.2c3.6-3.6,4.4-9,2.4-13.4l4-3.3c1.3,1.3,2.8,2.2,4.4,2.7c0,0.2-0.1,0.3-0.2,0.5
	c-0.2,0.6-0.4,1.2-0.6,1.8c-0.2,0.5-0.5,1-0.7,1.5c-0.2,0.5-0.1,0.7,0.3,1c0.5,0.4,1,0.7,1.4,1.1c3.8,3.8,9.9,3.8,13.7,0
	c3.4-3.4,3.7-8.8,1-12.6c1.5-3.6,1.2-7.8-1-11.1l3.6-3l0.6,0.6c1.2,1.2,2.5,2.1,4,2.6l0.8,0.8c3.8,3.8,9.9,3.8,13.7,0
	c3-3,3.6-7.5,1.8-11.1c0.2-2.8-0.7-5.7-2.5-8l4.4-3.6c1.8,0.7,3.8,0.9,5.6,0.6c1.8,1.5,4,2.4,6.4,2.4c2.6,0,5-1,6.8-2.8
	c3.8-3.8,3.8-9.9,0-13.7l0,0l-4.8-4.8l4.2-6.7l2.7-4.3l6.4,6.5c0.1,0.1,0.3,0.2,0.4,0.4c3.8,3.8,9.9,3.8,13.7,0
	c1.7-1.7,2.7-4,2.8-6.3c0.2-2.6-0.8-5.4-2.8-7.4l-10-9.9l6.9-10.9l5.7,5.7l9.1-19.1l0.3,0.3l12.3-12.3l6,6l35.8-35.8l3.2-3.2
	L512,305.2z"/>
<path class="st2" d="M426,223.6l-3.7,3.9l-25.1,67.6c0,0-15.5,8.6-25.1,10.7c-0.9,0.2-1.7,0.3-2.5,0.4c-2.6,0.2-6.3,0-10.1-0.4
	c0.2-2.6-0.8-5.4-2.8-7.4l-10-9.9l-7.3-7.3v-4.7l4.6-8.5l15.3,15.3l9.1-19.1l8-16.8l-9.6-12.3l8.1-10l9.8,12.4l22.2-19.1l-2.2-2.8
	l16.5,6.2l1.5,0.6L426,223.6z"/>
<g>
	<path class="st3" d="M420.5,215.5l-53.7-69.8c-2-2.6-5.6-3.2-8.4-1.5l-34.7,22.1h-45.2c-0.6,0-1.2,0.1-1.7,0.3l-35.1,10.1l-36.4-10
		L170,144.2c-2.7-1.7-6.3-1.1-8.3,1.4l-59.4,73.6c-2.1,2.7-1.8,6.5,0.8,8.7l31.2,26.8l27.9,37.7c-8.2,8.7-8,22.4,0.5,30.9
		c3.8,3.8,8.6,5.9,13.5,6.4c-0.2,1.1-0.3,2.3-0.3,3.4c0,5.9,2.3,11.5,6.5,15.7c4.2,4.2,9.8,6.5,15.7,6.5c0.1,0,0.2,0,0.2,0
		c0,0.2,0,0.3,0,0.5c0,5.9,2.3,11.5,6.5,15.7c4.2,4.2,9.8,6.5,15.7,6.5c1.2,0,2.3-0.1,3.5-0.3c0.5,4.9,2.6,9.8,6.4,13.5
		c1.4,1.4,3,2.6,4.7,3.6c3.4,2,7.2,2.9,11,2.9c5.7,0,11.4-2.2,15.7-6.5l3.4-3.4l1.4,1.2c4.3,4.2,9.9,6.2,15.5,6.2
		c5.7,0,11.4-2.2,15.7-6.5c4.4-4.4,6.6-10.3,6.5-16.1c5.8,0.1,11.7-2.1,16.1-6.5c4.4-4.4,6.6-10.3,6.5-16.1c6,0.1,11.8-2.2,16.1-6.5
		c4.4-4.4,6.6-10.3,6.5-16.1c5.8,0.1,11.7-2.1,16.1-6.5c4.2-4.2,6.4-9.7,6.5-15.2c0.1-4.4-1.1-8.8-3.6-12.6l17.3-36.2l3.1-6.6
		l30.7-26.4c0.7-0.6,1.3-1.4,1.7-2.3C422.2,219.8,422,217.3,420.5,215.5z M243.5,189.2c0.1,0,0.1,0,0.2-0.1l35.7-10.3h43.2
		l44.3,56.3l9.6,12.3l-8,16.8l-9.1,19.1l-70.2-70.2c-0.1-0.1-0.3-0.3-0.4-0.4c-1-0.8-2.3-1.4-3.6-1.5l-34.4-2.4
		c-2.4-0.2-4.8,1.1-5.9,3.2l-17.7,31.2c-1.3,2.2-3.3,3.9-5.8,4.5c-2.5,0.7-5.1,0.4-7.3-0.9c-2.3-1.3-3.9-3.3-4.5-5.8
		c-0.7-2.5-0.4-5.1,0.9-7.3l23.6-41.7L243.5,189.2z M115.9,222.3l52-64.5l25.4,16.2L138,241.4L115.9,222.3z M171.5,314.4
		c-3.8-3.8-3.8-9.9,0-13.7l7.7-7.7c0.2-0.2,0.5-0.5,0.7-0.7c1.5-1.2,3.3-2,5.2-2.1h0.2c0.3,0,0.5,0,0.8,0c2.6,0,5.1,1.1,6.9,3
		c3.5,3.8,3.4,9.9-0.4,13.7l-7.4,7.4C181.4,318.1,175.3,318.1,171.5,314.4z M198.1,342.7c-2.6,0-5-1-6.8-2.8
		c-1.8-1.8-2.8-4.2-2.8-6.8s1-5,2.8-6.8l14.9-14.9c2.8-2.8,7.3-3.6,11-1.9c3.8,1.8,5.9,5.9,5.3,10c-0.3,2.2-1.3,4.3-2.9,5.8
		l-14.7,14.6C203.1,341.7,200.7,342.7,198.1,342.7z M227.4,362.6c-1.8,1.8-4.3,2.8-6.8,2.8c-2.6,0-5-1-6.8-2.8
		c-1.8-1.8-2.8-4.3-2.8-6.8c0-2.6,1-5,2.8-6.8l14.9-14.9c3-3,7.9-3.7,11.7-1.5c3.4,2,5.2,5.9,4.6,9.8c-0.3,2.1-1.3,4.1-2.9,5.7
		L227.4,362.6z M260.4,375l-7.4,7.4c-3.8,3.8-9.9,3.8-13.6,0c-3.8-3.8-3.8-9.9,0-13.7l7.7-7.7c0.2-0.2,0.5-0.4,0.7-0.7c0,0,0,0,0,0
		c1.3-1,2.7-1.7,4.3-2c0,0,0.1,0,0.1,0c0.3,0,0.5-0.1,0.8-0.1c0.1,0,0.2,0,0.3,0c0.2,0,0.5,0,0.7,0c2.6,0,5.1,1.1,6.9,3
		c0.2,0.2,0.4,0.5,0.6,0.7C264.4,365.8,264,371.4,260.4,375z M356.7,312.1c-3.8,3.8-9.9,3.8-13.7,0c-0.1-0.1-0.3-0.3-0.4-0.4
		l-6.4-6.5l-34.1-34.4c-2.5-2.5-6.4-2.5-8.9,0c-2.5,2.4-2.5,6.4,0,8.9l36.2,36.5l4.8,4.8l0,0c3.8,3.8,3.8,9.9,0,13.7
		c-1.8,1.8-4.3,2.8-6.8,2.8c-2.4,0-4.6-0.8-6.4-2.4c-0.2-0.1-0.3-0.3-0.5-0.4l-27.4-27.7c-2.4-2.5-6.4-2.5-8.9,0
		c-2.5,2.5-2.5,6.4,0,8.9l26.9,27.2c0.1,0.2,0.3,0.3,0.4,0.5c0.8,0.8,1.4,1.6,1.8,2.5c1.8,3.6,1.2,8.1-1.8,11.1
		c-3.8,3.8-9.9,3.8-13.7,0l-0.8-0.8L283,342.2c-2.4-2.5-6.4-2.5-8.9,0c-2.5,2.5-2.5,6.4,0,8.9l14.5,14.7c0.1,0.2,0.3,0.3,0.5,0.5
		c0.3,0.3,0.7,0.7,1,1.1c2.8,3.8,2.5,9.2-1,12.6c-3.8,3.8-9.9,3.8-13.7,0c-0.4-0.4-1-0.8-1.4-1.1c-0.4-0.3-0.5-0.5-0.3-1
		c0.2-0.5,0.5-1,0.7-1.5c0.2-0.6,0.4-1.2,0.6-1.8c0-0.2,0.1-0.3,0.2-0.5c0.8-3,1.1-6.1,0.7-9.2c-0.8-6.2-4.2-11.8-9.4-15.3
		c-2.8-1.9-6-3.2-9.4-3.6c1.6-7.1-0.3-14.9-5.4-20.3c-4.2-4.4-9.8-6.9-15.8-7c-0.2,0-0.4,0-0.7,0c0.1-5.8-2-11.5-6-15.7
		c-4.2-4.4-9.8-6.9-15.9-7c-1.8,0-3.6,0.2-5.4,0.6c-0.8-5.2-3.4-10-7.3-13.5c-4-3.4-8.9-5.3-14.2-5.4c-5.6-0.1-11,2-15.2,5.7
		l-24.3-32.8l58.2-70.9l18.5,5.1l-24.2,42.8c-2.9,5.2-3.7,11.2-2.1,16.9c1.6,5.7,5.3,10.5,10.5,13.4c0.3,0.2,0.7,0.4,1,0.5
		c0,0,0,0,0.1,0c0.9,0.4,1.8,0.8,2.7,1.1c4.2,1.5,8.8,1.6,13.2,0.4c5.7-1.6,10.5-5.3,13.4-10.5l15.7-27.8l28.1,2l57.6,57.6l7.3,7.3
		l10,9.9c2,2,3,4.7,2.8,7.4C359.4,308.2,358.5,310.4,356.7,312.1z M406.9,218.4l-22.2,19.1l-9.8-12.4l-40.1-51l25.4-16.2l44.4,57.7
		L406.9,218.4z"/>
	<path class="st3" d="M295.3,154.5c1.6,0,3.2-0.6,4.5-1.8l43-43c2.5-2.5,2.5-6.4,0-8.9c-2.5-2.5-6.4-2.5-8.9,0l-43,43
		c-2.5,2.5-2.5,6.4,0,8.9C292.1,153.8,293.7,154.5,295.3,154.5z"/>
	<path class="st3" d="M222.9,152.6c1.2,1.2,2.8,1.8,4.5,1.8c1.6,0,3.2-0.6,4.4-1.8c2.5-2.5,2.5-6.4,0-8.9l-43-43
		c-2.5-2.5-6.4-2.5-8.9,0c-2.5,2.5-2.5,6.4,0,8.9L222.9,152.6z"/>
	<path class="st3" d="M261.3,154.5c3.5,0,6.3-2.8,6.3-6.3v-35.6c0-3.5-2.8-6.3-6.3-6.3c-3.5,0-6.3,2.8-6.3,6.3v35.6
		C255,151.6,257.9,154.5,261.3,154.5z"/>
	<path class="st3" d="M255.5,89.8c1,2.4,3.5,4,6.1,3.9c2.6-0.1,4.9-1.9,5.7-4.4c0.8-2.5-0.1-5.3-2.2-6.9c-2.1-1.6-5.1-1.7-7.3-0.2
		C255.4,83.8,254.4,87,255.5,89.8z"/>
</g>
</svg>
