<?xml version="1.0" encoding="utf-8"?>
<!-- Generator: Adobe Illustrator 24.1.0, SVG Export Plug-In . SVG Version: 6.00 Build 0)  -->
<svg version="1.1" id="Layer_1" xmlns="http://www.w3.org/2000/svg" xmlns:xlink="http://www.w3.org/1999/xlink" x="0px" y="0px"
	 viewBox="0 0 512 512" style="enable-background:new 0 0 512 512;" xml:space="preserve">
<style type="text/css">
	.st0{fill-rule:evenodd;clip-rule:evenodd;fill:#4CAF50;}
	.st1{clip-path:url(#SVGID_2_);}
	.st2{fill-rule:evenodd;clip-rule:evenodd;fill:#3D8E41;}
	.st3{fill-rule:evenodd;clip-rule:evenodd;fill:#FFFFFF;}
</style>
<g id="Layer_1_1_">
	<path class="st0" d="M73.8,7h365c37,0,67.2,30.3,67.2,67.2v365c0,37-30.3,67.2-67.2,67.2h-365c-37,0-67.2-30.3-67.2-67.2v-365
		C6.5,37.3,36.8,7,73.8,7L73.8,7z"/>
	<g>
		<g>
			<defs>
				<path id="SVGID_1_" d="M73.8,7h365c37,0,67.2,30.3,67.2,67.2v365c0,37-30.3,67.2-67.2,67.2h-365c-37,0-67.2-30.3-67.2-67.2v-365
					C6.5,37.3,36.8,7,73.8,7L73.8,7z"/>
			</defs>
			<clipPath id="SVGID_2_">
				<use xlink:href="#SVGID_1_"  style="overflow:visible;"/>
			</clipPath>
			<g class="st1">
				<g>
					<path class="st2" d="M280.7,96.4l283.7,283.7v22.4L280.7,118.8V96.4z"/>
					<path class="st2" d="M280.7,118.8l283.7,283.7l0,0.6l-0.1,0.6l-0.1,0.5l-0.2,0.5l-0.2,0.5l-0.3,0.5l-0.3,0.4l-0.4,0.4l-0.4,0.4
						l-0.4,0.3l-0.5,0.3l-0.5,0.3l-0.5,0.2l-0.6,0.1l-0.6,0.1l-0.6,0L275,124.5l0.6,0l0.6-0.1l0.5-0.1l0.5-0.2l0.5-0.2l0.5-0.3
						l0.4-0.3l0.4-0.4l0.4-0.4l0.3-0.4l0.3-0.5l0.2-0.5l0.2-0.5l0.1-0.6l0.1-0.6L280.7,118.8z"/>
					<path class="st2" d="M275,124.5l283.7,283.7l-0.6,0l-0.6-0.1L557,408l-0.5-0.2l-0.5-0.3l-0.5-0.3l-0.4-0.3l-0.4-0.4l-0.4-0.4
						L270.6,122.5l0.4,0.4l0.4,0.4l0.4,0.3l0.5,0.3l0.5,0.2l0.5,0.2l0.6,0.1l0.6,0.1L275,124.5z"/>
					<path class="st2" d="M279.4,92.7l283.7,283.7l0.3,0.4l0.3,0.5l0.2,0.5l0.2,0.5l0.1,0.6l0.1,0.6l0,0.6L280.7,96.4l0-0.6
						l-0.1-0.6l-0.1-0.5l-0.2-0.5l-0.2-0.5l-0.3-0.5L279.4,92.7z"/>
					<path class="st2" d="M215.9,140.9l283.7,283.7l0.4,0.4l0.3,0.5l0.3,0.5l0.2,0.5l0.2,0.5l0.1,0.5l0.1,0.5l0,0.6l0,0.5l-0.1,0.5
						l-0.1,0.5l-0.2,0.5l-0.2,0.5l-0.3,0.5l-0.3,0.5l-0.4,0.4L215.9,149l0.4-0.4l0.3-0.5l0.3-0.5l0.2-0.5l0.2-0.5l0.1-0.5l0.1-0.5
						l0-0.5l0-0.5l-0.1-0.6l-0.1-0.5l-0.2-0.5l-0.2-0.5l-0.3-0.5l-0.3-0.4L215.9,140.9z"/>
					<path class="st2" d="M215.9,149l283.7,283.7l-0.2,0.2l-0.2,0.2l-0.2,0.2l-0.2,0.2l-0.2,0.1l-0.2,0.1l-0.3,0.1l-0.3,0.1
						l-0.3,0.1l-0.3,0.1l-0.3,0.1l-0.3,0.1l-0.3,0.1l-0.3,0l-0.3,0h-0.3L211.9,150.7h0.3l0.3,0l0.3,0l0.3-0.1l0.3-0.1l0.3-0.1
						l0.3-0.1l0.3-0.1l0.3-0.1l0.3-0.1l0.3-0.1l0.2-0.2l0.2-0.2l0.2-0.2l0.2-0.2L215.9,149z"/>
					<path class="st2" d="M211.9,150.7l283.7,283.7h-0.3l-0.3,0l-0.3,0l-0.3-0.1l-0.3-0.1l-0.3-0.1l-0.3-0.1l-0.3-0.1l-0.3-0.1
						l-0.3-0.1l-0.2-0.1l-0.2-0.1l-0.2-0.2l-0.2-0.2l-0.2-0.2l-0.2-0.2L207.9,149l0.2,0.2l0.2,0.2l0.2,0.2l0.2,0.2l0.2,0.2l0.3,0.1
						l0.3,0.1l0.3,0.1l0.3,0.1l0.3,0.1l0.3,0.1l0.3,0.1l0.3,0.1l0.3,0l0.3,0H211.9z"/>
					<path class="st2" d="M207.9,149l283.7,283.7l-15.9-15.9L192,133.1L207.9,149z"/>
					<path class="st2" d="M358.5,125.5l283.7,283.7l0.3,0.5l0.3,0.5l0.2,0.5l0.2,0.5l0.1,0.5l0.1,0.5l0,0.6l0,0.5l-0.1,0.5l-0.1,0.5
						l-0.2,0.5l-0.2,0.5l-0.3,0.5l-0.3,0.5l-0.4,0.4L358.1,133.1l0.4-0.4l0.3-0.5l0.3-0.5l0.2-0.5l0.2-0.5l0.1-0.5l0.1-0.5l0-0.5
						l0-0.5l-0.1-0.6l-0.1-0.5l-0.2-0.5l-0.2-0.5l-0.3-0.5L358.5,125.5z"/>
					<path class="st2" d="M342.1,149l15.9-15.9l283.7,283.7l-15.9,15.9L342.1,149z"/>
					<path class="st2" d="M342.2,149l283.7,283.7l-0.2,0.2l-0.2,0.2l-0.2,0.2l-0.2,0.2l-0.2,0.1l-0.3,0.1l-0.3,0.1l-0.3,0.1
						l-0.3,0.1l-0.3,0.1l-0.3,0.1l-0.3,0.1l-0.3,0.1l-0.3,0l-0.3,0h-0.3L338.1,150.7h0.3l0.3,0l0.3,0l0.3-0.1l0.3-0.1l0.3-0.1
						l0.3-0.1l0.3-0.1l0.3-0.1l0.3-0.1l0.2-0.1l0.2-0.2l0.2-0.2l0.2-0.2l0.2-0.2L342.2,149z"/>
					<path class="st2" d="M334.1,149l283.7,283.7l-0.4-0.4L333.7,148.6L334.1,149z"/>
					<path class="st2" d="M338.1,150.7l283.7,283.7h-0.3l-0.3,0l-0.3,0l-0.3-0.1l-0.3-0.1l-0.3-0.1L620,434l-0.3-0.1l-0.3-0.1
						l-0.3-0.1l-0.2-0.1l-0.3-0.1l-0.2-0.2l-0.2-0.2l-0.2-0.2l-0.2-0.2L334.1,149l0.2,0.2l0.2,0.2l0.2,0.2l0.2,0.2l0.2,0.2l0.2,0.1
						l0.3,0.1l0.3,0.1l0.3,0.1l0.3,0.1l0.3,0.1l0.3,0.1l0.3,0.1l0.3,0l0.3,0H338.1z"/>
					<path class="st2" d="M338.6,196.5l283.7,283.7l0,1.8l-0.1,1.8l-0.1,1.7l-0.1,1.6l-0.2,1.6l-0.2,1.5l-0.2,1.5l-0.3,1.4l-0.3,1.4
						l-0.3,1.3l-0.3,1.3l-0.4,1.2l-0.4,1.2l-0.4,1.1l-0.4,1.1l-0.5,1.1l-0.5,1l-0.5,1l-0.5,1l-0.5,0.9l-0.5,0.9l-0.5,0.9l-0.6,0.9
						l-0.6,0.8l-0.6,0.8l-0.6,0.8l-0.6,0.8l-0.6,0.8l-0.6,0.8l-0.6,0.8l-0.6,0.8l-0.6,0.8L325.5,232.8l0.6-0.8l0.6-0.8l0.6-0.8
						l0.6-0.8l0.6-0.8l0.6-0.8l0.6-0.8l0.6-0.8l0.6-0.8l0.6-0.9l0.6-0.9l0.5-0.9l0.5-0.9l0.5-1l0.5-1l0.5-1l0.4-1.1l0.4-1.1l0.4-1.1
						l0.4-1.2l0.4-1.2l0.3-1.3l0.3-1.3l0.3-1.4l0.3-1.4l0.2-1.5l0.2-1.5l0.2-1.6l0.1-1.6l0.1-1.7l0.1-1.8L338.6,196.5z"/>
					<path class="st2" d="M325.5,232.8l283.7,283.7l-0.6,0.8L608,518l-0.6,0.8l-0.6,0.8l-0.6,0.8l-0.6,0.8L605,522l-0.6,0.9
						l-0.6,0.9l-0.6,0.9l-0.6,0.9l-0.5,1l-0.5,1l-0.5,1l-0.5,1.1l-0.5,1.1l-0.5,1.2l-0.4,1.2l-0.4,1.3l-0.4,1.3l-0.4,1.4l-0.4,1.4
						l-0.4,1.5l-0.3,1.6l-0.3,1.6l-0.3,1.7l-0.2,1.8l-0.2,1.9l-0.2,1.9l-0.1,2l-0.1,2.1l-0.1,2.2L311.7,273.1l0.1-2.2l0.1-2.1l0.1-2
						l0.2-1.9l0.2-1.9l0.2-1.8l0.3-1.7l0.3-1.6l0.3-1.6l0.3-1.5l0.4-1.4l0.4-1.4l0.4-1.3l0.4-1.3l0.4-1.2l0.5-1.2l0.5-1.1l0.5-1.1
						l0.5-1l0.5-1l0.5-1l0.6-0.9l0.6-0.9l0.6-0.9l0.6-0.9l0.6-0.8l0.6-0.8l0.6-0.8l0.6-0.8l0.6-0.8l0.6-0.8L325.5,232.8z"/>
					<path class="st2" d="M315.7,275.9l283.7,283.7l0.3,0.3l0.3,0.4l0.3,0.4l0.3,0.4l0.3,0.4l0.3,0.4l0.3,0.4l0.2,0.4l0.2,0.4
						l0.2,0.4l0.2,0.4l0.2,0.4l0.2,0.5l0.1,0.5l0.1,0.5l0.1,0.5l0.1,0.5l0.1,0.5l0.1,0.5l0,0.5l0,0.5v0.5L319.7,285.7l0-0.5l0-0.5
						l-0.1-0.5l-0.1-0.5l-0.1-0.5l-0.1-0.5l-0.1-0.5l-0.1-0.5l-0.1-0.5l-0.2-0.5l-0.2-0.5l-0.2-0.4l-0.2-0.4L318,279l-0.2-0.4
						l-0.3-0.4l-0.3-0.4l-0.3-0.4l-0.3-0.4l-0.3-0.4l-0.3-0.4L315.7,275.9z"/>
					<path class="st2" d="M319.7,285.7l283.7,283.7l0,0.7l-0.1,0.7l-0.1,0.7l-0.1,0.7l-0.1,0.7l-0.2,0.6l-0.2,0.6l-0.2,0.6l-0.3,0.6
						l-0.3,0.6l-0.3,0.6l-0.4,0.6l-0.4,0.5l-0.4,0.5l-0.4,0.5l-0.5,0.5l-0.5,0.4l-0.5,0.4l-0.5,0.4l-0.5,0.4l-0.6,0.4l-0.6,0.3
						l-0.6,0.3l-0.6,0.3l-0.6,0.3l-0.6,0.2l-0.6,0.2l-0.7,0.2l-0.7,0.1l-0.7,0.1l-0.7,0.1l-0.7,0L305.9,299.6l0.7,0l0.7-0.1l0.7-0.1
						l0.7-0.1l0.7-0.2l0.6-0.2l0.6-0.2l0.6-0.3l0.6-0.3l0.6-0.3l0.6-0.3l0.6-0.4l0.5-0.4l0.5-0.4l0.5-0.4l0.5-0.5l0.4-0.5l0.4-0.5
						l0.4-0.5l0.4-0.6l0.4-0.6l0.3-0.6l0.3-0.6l0.3-0.6l0.2-0.6l0.2-0.6l0.2-0.7l0.1-0.7l0.1-0.7l0.1-0.7l0.1-0.7L319.7,285.7z"/>
					<path class="st2" d="M305.9,299.6l283.7,283.7l0.1,0.3l0.1,0.3l0,0.3l0,0.3l0,0.3l0,0.3l0,0.3v0.3L306.2,302.1l0-0.3l0-0.3
						l0-0.3l0-0.3l0-0.3l0-0.3l0-0.3L305.9,299.6z"/>
					<path class="st2" d="M189.8,204l283.7,283.7l0.4,0.4l0.3,0.4l0.3,0.5l0.2,0.5l0.2,0.5l0.1,0.5l0.1,0.6l0,0.6L191.5,208.1l0-0.6
						l-0.1-0.6l-0.1-0.5l-0.2-0.5l-0.2-0.5l-0.3-0.5l-0.3-0.4L189.8,204z"/>
					<path class="st2" d="M163.3,213.8L447,497.5l-0.6,0l-0.6-0.1l-0.5-0.1l-0.5-0.2l-0.5-0.2l-0.5-0.3l-0.4-0.3l-0.4-0.4
						L159.3,212.1l0.4,0.4l0.4,0.3l0.5,0.3l0.5,0.2l0.5,0.2l0.5,0.1l0.6,0.1L163.3,213.8z"/>
					<path class="st2" d="M200,291.1l15.9-15.9l283.7,283.7l-15.9,15.9L200,291.1z"/>
					<path class="st2" d="M215.9,267.2l283.7,283.7l0.4,0.4l0.3,0.5l0.3,0.5l0.2,0.5l0.2,0.5l0.1,0.5l0.1,0.5l0,0.5l0,0.6l-0.1,0.5
						l-0.1,0.5l-0.2,0.5l-0.2,0.5l-0.3,0.5l-0.3,0.5l-0.4,0.4L215.9,275.2l0.4-0.4l0.3-0.5l0.3-0.5l0.2-0.5l0.2-0.5l0.1-0.5l0.1-0.5
						l0-0.5l0-0.6l-0.1-0.5l-0.1-0.5l-0.2-0.5l-0.2-0.5l-0.3-0.5l-0.3-0.5L215.9,267.2z"/>
					<path class="st2" d="M191.5,208.1l283.7,283.7l0,0.6l-0.1,0.6l-0.1,0.5l-0.2,0.5l-0.2,0.5l-0.3,0.5l-0.3,0.4l-0.4,0.4l-0.4,0.4
						l-0.4,0.3l-0.5,0.3l-0.5,0.2l-0.5,0.2l-0.6,0.1l-0.6,0.1l-0.6,0L185.8,213.8l0.6,0l0.6-0.1l0.5-0.1l0.5-0.2l0.5-0.2l0.5-0.3
						l0.4-0.3l0.4-0.4l0.4-0.4l0.3-0.4l0.3-0.5l0.2-0.5l0.2-0.5l0.1-0.6l0.1-0.6L191.5,208.1z"/>
					<path class="st2" d="M322.1,153.8l283.7,283.7l2,2.3l1.9,2.4l1.8,2.5l1.7,2.6l1.5,2.7l1.4,2.7l1.3,2.8l1.1,2.9l1,2.9l0.9,3
						l0.7,3.1l0.6,3.1l0.4,3.2l0.2,3.2l0.1,3.3L338.6,196.5l-0.1-3.3l-0.3-3.2l-0.4-3.2l-0.6-3.1l-0.7-3.1l-0.9-3l-1-2.9l-1.1-2.9
						l-1.3-2.8l-1.4-2.7l-1.5-2.7l-1.7-2.6l-1.8-2.5l-1.9-2.4L322.1,153.8z"/>
					<path class="st2" d="M358.1,283l283.7,283.7l0.4,0.4l0.3,0.5l0.3,0.5l0.2,0.5l0.2,0.5l0.1,0.5l0.1,0.5l0,0.5l0,0.6l-0.1,0.5
						l-0.1,0.5l-0.2,0.5l-0.2,0.5l-0.3,0.5l-0.3,0.5l-0.4,0.4L358.1,291.1l0.4-0.4l0.3-0.5l0.3-0.5l0.2-0.5l0.2-0.5l0.1-0.5l0.1-0.5
						l0-0.5l0-0.6l-0.1-0.5l-0.1-0.5l-0.2-0.5l-0.2-0.5l-0.3-0.5l-0.3-0.5L358.1,283z"/>
					<path class="st2" d="M358.1,291.1l283.7,283.7l-0.2,0.2l-0.2,0.2l-0.2,0.2l-0.2,0.2l-0.2,0.1l-0.3,0.1l-0.3,0.1l-0.3,0.1
						l-0.3,0.1l-0.3,0.1l-0.3,0.1l-0.3,0.1l-0.3,0l-0.3,0l-0.3,0l-0.3,0L354,292.8l0.3,0l0.3,0l0.3,0l0.3-0.1l0.3-0.1l0.3-0.1
						l0.3-0.1l0.3-0.1l0.3-0.1l0.3-0.1l0.2-0.1l0.2-0.1l0.2-0.2l0.2-0.2l0.2-0.2L358.1,291.1z"/>
					<path class="st2" d="M354,292.8l283.7,283.7l-0.3,0l-0.3,0l-0.3,0l-0.3,0l-0.3-0.1l-0.3-0.1l-0.3-0.1l-0.3-0.1l-0.3-0.1
						l-0.3-0.1l-0.2-0.1l-0.3-0.1l-0.2-0.2l-0.2-0.2l-0.2-0.2l-0.2-0.2L350,291.1l0.2,0.2l0.2,0.2l0.2,0.2l0.2,0.2l0.2,0.1l0.2,0.1
						l0.3,0.1l0.3,0.1l0.3,0.1l0.3,0.1l0.3,0.1l0.3,0.1l0.3,0.1l0.3,0l0.3,0L354,292.8z"/>
					<path class="st2" d="M350,291.1l283.7,283.7l-15.9-15.9L334.1,275.2L350,291.1z"/>
					<path class="st2" d="M391.1,204.5l283.7,283.7l0.3,0.4l0.3,0.5l0.2,0.5l0.2,0.5l0.1,0.5l0.1,0.6l0,0.6L392.5,208.1l0-0.6
						l-0.1-0.6l-0.1-0.5l-0.2-0.5l-0.3-0.5l-0.3-0.5L391.1,204.5z"/>
					<path class="st2" d="M392.5,208.1l283.7,283.7l0,0.6l-0.1,0.6l-0.1,0.5l-0.2,0.5l-0.2,0.5l-0.3,0.5l-0.3,0.4l-0.4,0.4l-0.4,0.4
						l-0.4,0.3l-0.5,0.3l-0.5,0.2l-0.5,0.2l-0.5,0.1l-0.6,0.1l-0.6,0L386.7,213.8l0.6,0l0.6-0.1l0.5-0.1l0.5-0.2l0.5-0.2l0.5-0.3
						l0.4-0.3l0.4-0.4l0.4-0.4l0.3-0.4l0.3-0.5l0.3-0.5l0.2-0.5l0.1-0.6l0.1-0.6L392.5,208.1z"/>
					<path class="st2" d="M386.7,213.8l283.7,283.7H648L364.3,213.8H386.7z"/>
					<path class="st2" d="M364.3,213.8L648,497.5l-0.6,0l-0.6-0.1l-0.5-0.1l-0.5-0.2l-0.5-0.2l-0.5-0.3l-0.4-0.3l-0.4-0.4l-0.4-0.4
						L359.9,211.7l0.4,0.4l0.4,0.4l0.4,0.3l0.5,0.3l0.5,0.2l0.5,0.2l0.6,0.1l0.6,0.1L364.3,213.8z"/>
					<path class="st2" d="M281.1,349.9l283.7,283.7l0.7,0.6l0.6,0.7l0.6,0.7l0.6,0.7l0.5,0.8l0.5,0.8l0.5,0.8l0.4,0.8l0.4,0.8
						l0.3,0.9l0.3,0.9l0.3,0.9l0.2,0.9l0.2,1l0.1,1l0.1,1l0,1L287.4,364.2l0-1l-0.1-1l-0.1-1l-0.2-1l-0.2-0.9l-0.3-0.9l-0.3-0.9
						l-0.3-0.9l-0.4-0.8l-0.4-0.8l-0.5-0.8l-0.5-0.8l-0.5-0.8l-0.6-0.7l-0.6-0.7l-0.6-0.7L281.1,349.9z"/>
					<path class="st2" d="M287.4,364.2l283.7,283.7l0,0.4l0,0.4l0,0.4l0,0.4l0,0.4l-0.1,0.4l0,0.4l-0.1,0.4L287.2,367.2l0.1-0.4
						l0.1-0.4l0-0.4l0-0.4l0-0.4l0-0.4l0-0.4L287.4,364.2z"/>
					<path class="st2" d="M359.4,354.4l283.7,283.7l0.6,0.7l0.6,0.7l0.5,0.7l0.5,0.7l0.4,0.7L362.1,357.9l-0.4-0.7l-0.5-0.7
						l-0.5-0.7l-0.6-0.7L359.4,354.4z"/>
					<path class="st2" d="M306.2,302.1l283.7,283.7l0,0.6l0,0.6l-0.1,0.6l-0.1,0.6l-0.1,0.6l-0.1,0.6l-0.2,0.5l-0.2,0.5l-0.2,0.5
						l-0.2,0.5l-0.2,0.5l-0.3,0.5l-0.3,0.5l-0.3,0.5l-0.3,0.5l-0.3,0.4l-0.3,0.4l-0.3,0.4l-0.4,0.4l-0.4,0.4l-0.4,0.4l-0.4,0.4
						l-0.4,0.3l-0.4,0.3l-0.4,0.3l-0.5,0.3l-0.5,0.3l-0.5,0.3l-0.5,0.2l-0.5,0.2l-0.5,0.2l-0.5,0.2L296.3,315.4l0.5-0.2l0.5-0.2
						l0.5-0.2l0.5-0.2l0.5-0.3l0.5-0.3l0.5-0.3l0.5-0.3l0.4-0.3l0.4-0.3l0.4-0.4l0.4-0.4l0.4-0.4l0.4-0.4l0.4-0.4l0.3-0.4l0.3-0.4
						l0.3-0.4l0.3-0.5l0.3-0.5l0.2-0.5l0.2-0.5l0.2-0.5l0.2-0.5l0.2-0.5l0.1-0.5l0.1-0.5l0.1-0.6l0.1-0.6l0.1-0.6l0-0.6L306.2,302.1
						z"/>
					<path class="st2" d="M185.8,213.8l283.7,283.7H447L163.3,213.8H185.8z"/>
					<path class="st2" d="M173.2,316.3L456.9,600l0.4,0.4l0.4,0.4l0.3,0.4l0.3,0.5l0.2,0.5l0.2,0.5l0.1,0.5l0.1,0.6l0,0.6
						L175.3,320.7l0-0.6l-0.1-0.6L175,319l-0.2-0.5l-0.3-0.5l-0.3-0.5l-0.3-0.4l-0.4-0.4L173.2,316.3z"/>
					<path class="st2" d="M258.9,422.3L542.6,706l-0.3,0.1l-0.3,0.1l-0.3,0.1l-0.3,0.1l-0.3,0.1l-0.3,0l-0.3,0l-0.3,0L256.5,422.9
						l0.3,0l0.3,0l0.3,0l0.3-0.1l0.3-0.1l0.3-0.1l0.3-0.1L258.9,422.3z"/>
					<path class="st2" d="M256.5,422.9l283.7,283.7h-19.5L237,422.9L256.5,422.9z"/>
					<path class="st2" d="M237,422.9l283.7,283.7l-0.3,0l-0.3,0l-0.3,0l-0.3-0.1l-0.3-0.1l-0.3-0.1l-0.3-0.1l-0.2-0.1L234.9,422.5
						l0.3,0.1l0.3,0.1l0.3,0.1l0.3,0.1l0.3,0l0.3,0l0.3,0L237,422.9z"/>
					<path class="st2" d="M234.9,422.5l283.7,283.7l-51.4-19.8L183.5,402.6L234.9,422.5z"/>
					<path class="st2" d="M183.5,402.6l283.7,283.7H459L175.3,402.6L183.5,402.6z"/>
					<path class="st2" d="M175.3,402.6L459,686.3v8.4L175.3,411.1V402.6z"/>
					<path class="st2" d="M175.3,411.1L459,694.8l0,0.6l-0.1,0.6l-0.1,0.5l-0.2,0.5l-0.2,0.5l-0.3,0.5l-0.3,0.4l-0.4,0.4l-0.4,0.4
						l-0.4,0.3l-0.5,0.3l-0.5,0.2l-0.5,0.2l-0.5,0.1l-0.6,0.1l-0.6,0L169.6,416.8l0.6,0l0.6-0.1l0.5-0.1l0.5-0.2l0.5-0.3l0.5-0.3
						l0.4-0.3l0.4-0.4l0.4-0.4l0.3-0.4l0.3-0.5l0.3-0.5l0.2-0.5l0.1-0.5l0.1-0.6L175.3,411.1z"/>
					<path class="st2" d="M169.6,416.8l283.7,283.7h-43.8L125.8,416.8H169.6z"/>
					<path class="st2" d="M125.8,416.8l283.7,283.7l-0.6,0l-0.6-0.1l-0.5-0.1l-0.5-0.2l-0.5-0.2l-0.5-0.3l-0.4-0.3L122.2,415.5
						l0.4,0.3l0.5,0.3l0.5,0.3l0.5,0.2l0.6,0.1l0.6,0.1L125.8,416.8z"/>
					<path class="st2" d="M175.3,320.7L459,604.4v8.2L175.3,328.9V320.7z"/>
					<path class="st2" d="M281.1,413.9l283.7,283.7l-1,0.4l-0.9,0.3l-0.9,0.3L561,699l-0.9,0.3l-0.9,0.3l-0.9,0.3l-0.9,0.3l-0.9,0.3
						l-0.8,0.3l-0.8,0.3l-0.8,0.3l-0.8,0.3l-0.8,0.3l-0.8,0.3l-0.7,0.3l-0.7,0.3l-0.7,0.3l-0.7,0.3l-0.7,0.3l-0.6,0.2l-0.6,0.2
						l-0.6,0.2l-0.6,0.2l-0.5,0.2l-0.5,0.2l-0.5,0.2l-0.4,0.2l-0.4,0.2l-0.4,0.2l-0.3,0.1l-0.3,0.1L258.9,422.3l0.3-0.1l0.3-0.1
						l0.4-0.2l0.4-0.2l0.4-0.2l0.5-0.2l0.5-0.2l0.5-0.2l0.5-0.2l0.6-0.2l0.6-0.2l0.6-0.2l0.6-0.3l0.7-0.3l0.7-0.3l0.7-0.3l0.7-0.3
						l0.8-0.3l0.8-0.3l0.8-0.3l0.8-0.3l0.8-0.3l0.8-0.3l0.9-0.3l0.9-0.3l0.9-0.3l0.9-0.3l0.9-0.3l0.9-0.3l0.9-0.3l1-0.3L281.1,413.9
						z"/>
					<path class="st2" d="M244.1,299.6l283.7,283.7l-0.7,0l-0.7-0.1l-0.7-0.1L525,583l-0.7-0.2l-0.6-0.2l-0.6-0.2l-0.6-0.3l-0.6-0.3
						l-0.6-0.3l-0.6-0.3l-0.6-0.4l-0.5-0.4l-0.5-0.4l-0.5-0.4L234.9,295.9l0.5,0.4l0.5,0.4l0.5,0.4l0.6,0.4l0.6,0.3l0.6,0.3l0.6,0.3
						l0.6,0.3l0.6,0.2l0.7,0.2l0.7,0.2l0.7,0.1l0.7,0.1l0.7,0.1L244.1,299.6z"/>
					<path class="st2" d="M296.3,315.4L580,599.1l-0.1,1l-0.2,1l-0.2,1l-0.3,1l-0.3,1l-0.3,0.9l-0.4,0.9l-0.4,0.9l-0.4,0.9l-0.5,0.8
						l-0.5,0.8l-0.6,0.8l-0.6,0.8l-0.6,0.7l-0.7,0.7l-0.7,0.7l-0.7,0.6l-0.8,0.6l-0.8,0.6l-0.8,0.5l-0.8,0.5l-0.9,0.5l-0.9,0.4
						l-0.9,0.4l-0.9,0.3l-1,0.3l-1,0.3l-1,0.2l-1,0.2l-1,0.1l-1,0.1l-1,0L275,335l1,0l1-0.1l1-0.1l1-0.2l1-0.2l1-0.3l1-0.3l0.9-0.4
						l0.9-0.4l0.9-0.4l0.9-0.5l0.8-0.5l0.8-0.5l0.8-0.6l0.8-0.6l0.7-0.6l0.7-0.7l0.7-0.7l0.6-0.7l0.6-0.8l0.6-0.8l0.5-0.8l0.5-0.8
						l0.4-0.9l0.4-0.9l0.4-0.9l0.3-0.9l0.3-1l0.3-1l0.2-1l0.2-1L296.3,315.4z"/>
					<path class="st2" d="M362.1,357.9l283.7,283.7l0.4,0.8l0.4,0.8l0.3,0.8l0.3,0.8l0.3,0.8l0.2,0.8l0.2,0.8l0.1,0.8l0.1,0.9l0,0.8
						l0,0.8l0,0.8l-0.1,0.8l-0.1,0.8l-0.1,0.8l-0.2,0.8l-0.2,0.8l-0.3,0.8l-0.3,0.8l-0.3,0.8l-0.4,0.8l-0.4,0.8l-0.4,0.7l-0.5,0.7
						l-0.5,0.7l-0.5,0.7l-0.6,0.7l-0.6,0.6l-0.6,0.6l-0.7,0.6l-0.7,0.6l-0.7,0.5L356.2,382.4l0.7-0.5l0.7-0.6l0.7-0.6l0.6-0.6
						l0.6-0.6l0.6-0.7l0.5-0.7l0.5-0.7l0.5-0.7l0.4-0.7l0.4-0.8l0.4-0.8l0.3-0.8l0.3-0.8l0.3-0.8l0.2-0.8l0.2-0.8l0.1-0.8l0.1-0.8
						l0.1-0.8l0-0.9l0-0.8l-0.1-0.8l-0.1-0.8l-0.1-0.8l-0.2-0.8l-0.2-0.8l-0.3-0.8l-0.3-0.8l-0.3-0.8l-0.4-0.8L362.1,357.9z"/>
					<path class="st2" d="M253.7,315.4l283.7,283.7l-0.5-0.2l-0.5-0.2l-0.5-0.2l-0.5-0.2l-0.5-0.3l-0.5-0.3l-0.5-0.3l-0.5-0.3
						l-0.4-0.3l-0.4-0.3l-0.4-0.4l-0.4-0.4L248.1,312.1l0.4,0.4l0.4,0.4l0.4,0.3l0.4,0.3l0.4,0.3l0.5,0.3l0.5,0.3l0.5,0.3l0.5,0.2
						l0.5,0.2l0.5,0.2L253.7,315.4z"/>
					<path class="st2" d="M275,335l283.7,283.7l-1,0l-1-0.1l-1-0.1l-1-0.2l-1-0.2l-1-0.3l-1-0.3l-0.9-0.3l-0.9-0.4l-0.9-0.4
						l-0.9-0.5l-0.8-0.5l-0.8-0.5l-0.8-0.6l-0.8-0.6l-0.7-0.6L260.5,329.3l0.7,0.6l0.8,0.6l0.8,0.6l0.8,0.5l0.8,0.5l0.9,0.5l0.9,0.4
						l0.9,0.4l0.9,0.4l1,0.3l1,0.3l1,0.2l1,0.2l1,0.1l1,0.1L275,335z"/>
					<path class="st2" d="M200.1,291.1l283.7,283.7l-0.2,0.2l-0.2,0.2l-0.2,0.2l-0.2,0.2l-0.2,0.1l-0.2,0.1l-0.3,0.1l-0.3,0.1
						l-0.3,0.1l-0.3,0.1l-0.3,0.1l-0.3,0.1l-0.3,0l-0.3,0l-0.3,0l-0.3,0L196,292.8l0.3,0l0.3,0l0.3,0l0.3-0.1l0.3-0.1l0.3-0.1
						l0.3-0.1l0.3-0.1l0.3-0.1l0.3-0.1l0.3-0.1l0.2-0.1l0.2-0.2l0.2-0.2l0.2-0.2L200.1,291.1z"/>
					<path class="st2" d="M196,292.8l283.7,283.7l-0.3,0l-0.3,0l-0.3,0l-0.3,0l-0.3-0.1l-0.3-0.1l-0.3-0.1l-0.3-0.1l-0.3-0.1
						l-0.3-0.1l-0.2-0.1l-0.2-0.1l-0.2-0.2l-0.2-0.2l-0.2-0.2L192.2,291.3l0.2,0.2l0.2,0.2l0.2,0.2l0.2,0.1l0.3,0.1l0.3,0.1l0.3,0.1
						l0.3,0.1l0.3,0.1l0.3,0.1l0.3,0.1l0.3,0.1l0.3,0l0.3,0L196,292.8z"/>
					<path class="st2" d="M356.2,382.4L639.9,666l-1.3,0.9l-1.5,0.9l-1.6,0.9l-1.7,0.9l-1.8,1l-1.9,1l-2,1l-2.1,1l-2.2,1l-2.2,1
						l-2.3,1l-2.4,1l-2.4,1l-2.5,1l-2.5,1l-2.6,1l-2.6,1l-2.6,1l-2.7,1l-2.7,1l-2.7,1l-2.7,1l-2.7,1l-2.7,1l-2.7,1l-2.7,1l-2.7,1
						l-2.6,1l-2.6,0.9l-2.6,0.9l-2.5,0.9l-2.5,0.9L281.1,413.9l2.5-0.9l2.5-0.9l2.6-0.9l2.6-0.9l2.6-1l2.7-1l2.7-1l2.7-1l2.7-1
						l2.7-1l2.7-1l2.7-1l2.7-1l2.7-1l2.6-1l2.6-1l2.6-1l2.5-1l2.5-1l2.4-1l2.4-1l2.3-1l2.2-1l2.2-1l2.1-1l2-1l1.9-1l1.8-1l1.7-0.9
						l1.6-0.9l1.5-0.9L356.2,382.4z"/>
				</g>
				<path class="st2" d="M280.7,96.4v22.4c0,3.1-2.6,5.7-5.7,5.7s-5.7-2.6-5.7-5.7V96.4c0-3.1,2.6-5.7,5.7-5.7
					C278.2,90.7,280.7,93.2,280.7,96.4z M215.9,140.9c2.2,2.2,2.2,5.8,0,8.1c-1.1,1.1-2.6,1.7-4,1.7c-1.5,0-2.9-0.6-4-1.7L192,133.1
					c-2.2-2.2-2.2-5.8,0-8.1c2.2-2.2,5.8-2.2,8.1,0L215.9,140.9z M358.1,125.1c2.2,2.2,2.2,5.8,0,8.1L342.2,149
					c-1.1,1.1-2.6,1.7-4,1.7c-1.5,0-2.9-0.6-4-1.7c-2.2-2.2-2.2-5.8,0-8.1l15.9-15.9C352.2,122.8,355.8,122.8,358.1,125.1z
					 M338.6,196.5c0-35-28.5-63.5-63.5-63.5s-63.5,28.5-63.5,63.5c0,19.8,6.6,28.2,13,36.2c6.5,8.1,13.1,16.5,13.8,40.4
					c-4.7,2.2-8,7-8,12.6c0,7.6,6.2,13.8,13.8,13.9c-0.1,0.8-0.2,1.6-0.2,2.5c0,6.3,4.2,11.5,9.8,13.3c0.9,11,10.1,19.6,21.3,19.6
					c11.2,0,20.4-8.7,21.3-19.6c5.7-1.7,9.8-7,9.8-13.3c0-0.8-0.1-1.7-0.2-2.5c7.6-0.1,13.8-6.3,13.8-13.9c0-5.5-3.3-10.3-8-12.6
					c0.7-23.8,7.4-32.2,13.8-40.4C332,224.7,338.6,216.3,338.6,196.5L338.6,196.5z M342.2,267.2l15.9,15.9c2.2,2.2,2.2,5.8,0,8.1
					c-1.1,1.1-2.6,1.7-4,1.7s-2.9-0.6-4-1.7l-15.9-15.9c-2.2-2.2-2.2-5.8,0-8.1C336.3,264.9,340,264.9,342.2,267.2z M364.3,202.4
					h22.4c3.1,0,5.7,2.6,5.7,5.7s-2.6,5.7-5.7,5.7h-22.4c-3.1,0-5.7-2.6-5.7-5.7C358.6,204.9,361.1,202.4,364.3,202.4z M268.1,344.9
					c10.7,0,19.3,8.7,19.3,19.3c0,1-0.1,2-0.2,3l40.9-14.5c18.2-8.3,29.5-2.8,34,5.2c4.7,8.3,2.1,19-5.9,24.5
					c-13.7,9.3-49.2,22.2-75.1,31.6c-10.3,3.7-19.1,6.9-22.2,8.4c-0.8,0.4-1.6,0.5-2.4,0.5H237c-0.7,0-1.4-0.1-2-0.4l-51.4-19.8
					h-8.2v8.4c0,3.1-2.6,5.7-5.7,5.7h-43.8c-3.1,0-5.7-2.6-5.7-5.7v-90.4c0-3.1,2.6-5.7,5.7-5.7h43.8c3.1,0,5.7,2.6,5.7,5.7v8.2
					h27.5c0.9,0,1.8,0.2,2.6,0.6l29.7,15.4L268.1,344.9z M185.8,202.4c3.1,0,5.7,2.6,5.7,5.7s-2.6,5.7-5.7,5.7h-22.4
					c-3.1,0-5.7-2.6-5.7-5.7s2.6-5.7,5.7-5.7H185.8z M215.9,267.2c2.2,2.2,2.2,5.8,0,8.1l-15.9,15.9c-1.1,1.1-2.6,1.7-4,1.7
					c-1.5,0-2.9-0.6-4-1.7c-2.2-2.2-2.2-5.8,0-8.1l15.9-15.9C210.1,264.9,213.7,264.9,215.9,267.2L215.9,267.2z"/>
			</g>
		</g>
	</g>
	<g>
		<path class="st3" d="M268.1,383.5c-3.1,0-5.7-2.6-5.7-5.7s2.6-5.7,5.7-5.7c4.3,0,7.9-3.5,7.9-7.9s-3.5-7.9-7.9-7.9l-34.4,0.1h0
			c-0.9,0-1.8-0.2-2.6-0.6l-29.7-15.4h-31.8c-3.1,0-5.7-2.6-5.7-5.7s2.6-5.7,5.7-5.7h33.2c0.9,0,1.8,0.2,2.6,0.6l29.7,15.4l33-0.1
			c10.7,0,19.3,8.7,19.3,19.3C287.4,374.9,278.7,383.5,268.1,383.5L268.1,383.5z"/>
		<path class="st3" d="M256.5,422.9H237c-0.7,0-1.4-0.1-2-0.4l-51.4-19.8H170c-3.1,0-5.7-2.6-5.7-5.7s2.6-5.7,5.7-5.7h14.6
			c0.7,0,1.4,0.1,2,0.4l51.4,19.8h17.2c4-1.7,11.7-4.5,22-8.3c23.9-8.7,60-21.8,72.5-30.3c3.4-2.3,3.9-6.7,2.4-9.4
			c-2.6-4.6-10.1-4.7-19.6-0.3c-0.2,0.1-0.3,0.1-0.5,0.2l-55.7,19.8c-0.6,0.2-1.3,0.3-1.9,0.3h-53.1c-3.1,0-5.7-2.6-5.7-5.7
			s2.6-5.7,5.7-5.7h52.1l54.6-19.4c18.2-8.3,29.5-2.8,34,5.2c4.7,8.3,2.1,19-5.9,24.5c-13.7,9.3-49.2,22.2-75.1,31.6
			c-10.3,3.7-19.1,6.9-22.2,8.4C258.1,422.7,257.3,422.9,256.5,422.9L256.5,422.9z"/>
		<path class="st3" d="M169.6,416.8h-43.8c-3.1,0-5.7-2.6-5.7-5.7v-90.4c0-3.1,2.6-5.7,5.7-5.7h43.8c3.1,0,5.7,2.6,5.7,5.7v90.4
			C175.3,414.2,172.7,416.8,169.6,416.8z M131.5,405.4h32.4v-79h-32.4V405.4z"/>
		<path class="st3" d="M306,283.2h-61.9c-3.1,0-5.7-2.6-5.7-5.7c0-27.2-7.1-36.1-13.9-44.7c-6.4-8.1-13-16.4-13-36.2
			c0-35,28.5-63.5,63.5-63.5c35,0,63.5,28.5,63.5,63.5c0,19.8-6.6,28.2-13,36.2c-6.8,8.6-13.9,17.5-13.9,44.7
			C311.7,280.6,309.1,283.2,306,283.2L306,283.2z M249.7,271.8h50.7c1-26.9,9.1-37.1,16.2-46.1c5.9-7.5,10.6-13.3,10.6-29.2
			c0-28.8-23.4-52.1-52.1-52.1s-52.2,23.4-52.2,52.1c0,15.8,4.7,21.7,10.6,29.2C240.6,234.7,248.7,244.9,249.7,271.8L249.7,271.8z"
			/>
		<path class="st3" d="M305.8,299.6h-61.5c-7.7,0-13.9-6.2-13.9-13.9c0-7.7,6.2-13.9,13.9-13.9h61.5c7.7,0,13.9,6.2,13.9,13.9
			C319.7,293.4,313.5,299.6,305.8,299.6z M244.3,283.2c-1.3,0-2.5,1.1-2.5,2.5c0,1.3,1.1,2.5,2.5,2.5h61.5c1.3,0,2.5-1.1,2.5-2.5
			c0-1.3-1.1-2.5-2.5-2.5H244.3z"/>
		<path class="st3" d="M292.3,316h-34.5c-7.7,0-13.9-6.2-13.9-13.9c0-7.7,6.2-13.9,13.9-13.9h34.5c7.7,0,13.9,6.2,13.9,13.9
			C306.2,309.8,299.9,316,292.3,316z M257.8,299.6c-1.3,0-2.5,1.1-2.5,2.5c0,1.4,1.1,2.5,2.5,2.5h34.5c1.3,0,2.5-1.1,2.5-2.5
			c0-1.4-1.1-2.5-2.5-2.5H257.8z"/>
		<path class="st3" d="M275,335c-11.8,0-21.4-9.6-21.4-21.4c0-1.5,0.2-3.1,0.5-4.6c0.6-2.6,2.9-4.5,5.6-4.5h30.6
			c2.7,0,5,1.9,5.6,4.5c0.3,1.5,0.5,3.1,0.5,4.6C296.4,325.4,286.8,335,275,335L275,335z M265.3,316c1.1,4.4,5,7.6,9.7,7.6
			c4.7,0,8.6-3.3,9.7-7.6H265.3z"/>
		<path class="st3" d="M275,124.5c-3.1,0-5.7-2.6-5.7-5.7V96.4c0-3.1,2.6-5.7,5.7-5.7s5.7,2.6,5.7,5.7v22.4
			C280.7,122,278.2,124.5,275,124.5z"/>
		<path class="st3" d="M338.1,150.7c-1.5,0-2.9-0.6-4-1.7c-2.2-2.2-2.2-5.8,0-8.1l15.9-15.9c2.2-2.2,5.8-2.2,8.1,0
			c2.2,2.2,2.2,5.8,0,8.1L342.2,149C341.1,150.1,339.6,150.7,338.1,150.7z"/>
		<path class="st3" d="M386.7,213.8h-22.4c-3.1,0-5.7-2.6-5.7-5.7s2.6-5.7,5.7-5.7h22.4c3.1,0,5.7,2.6,5.7,5.7
			C392.5,211.2,389.9,213.8,386.7,213.8z"/>
		<path class="st3" d="M354,292.8c-1.5,0-2.9-0.6-4-1.7l-15.9-15.9c-2.2-2.2-2.2-5.8,0-8.1c2.2-2.2,5.8-2.2,8.1,0l15.9,15.9
			c2.2,2.2,2.2,5.8,0,8.1C356.9,292.2,355.5,292.8,354,292.8z"/>
		<path class="st3" d="M196,292.8c-1.5,0-2.9-0.6-4-1.7c-2.2-2.2-2.2-5.8,0-8.1l15.9-15.9c2.2-2.2,5.8-2.2,8.1,0
			c2.2,2.2,2.2,5.8,0,8.1l-15.9,15.9C199,292.2,197.5,292.8,196,292.8L196,292.8z"/>
		<path class="st3" d="M185.8,213.8h-22.4c-3.1,0-5.7-2.6-5.7-5.7s2.6-5.7,5.7-5.7h22.4c3.1,0,5.7,2.6,5.7,5.7
			C191.5,211.2,188.9,213.8,185.8,213.8z"/>
		<path class="st3" d="M211.9,150.7c-1.5,0-2.9-0.6-4-1.7L192,133.1c-2.2-2.2-2.2-5.8,0-8.1c2.2-2.2,5.8-2.2,8.1,0l15.9,15.9
			c2.2,2.2,2.2,5.8,0,8.1C214.8,150.1,213.4,150.7,211.9,150.7z"/>
	</g>
</g>
</svg>
