<?xml version="1.0" encoding="utf-8"?>
<!-- Generator: Adobe Illustrator 24.1.0, SVG Export Plug-In . SVG Version: 6.00 Build 0)  -->
<svg version="1.1" id="Layer_1" xmlns="http://www.w3.org/2000/svg" xmlns:xlink="http://www.w3.org/1999/xlink" x="0px" y="0px"
	 viewBox="0 0 512 512" style="enable-background:new 0 0 512 512;" xml:space="preserve">
<style type="text/css">
	.st0{clip-path:url(#SVGID_2_);fill-rule:evenodd;clip-rule:evenodd;fill:#E040FB;}
	.st1{clip-path:url(#SVGID_2_);fill:none;}
	.st2{clip-path:url(#SVGID_2_);}
	.st3{fill-rule:evenodd;clip-rule:evenodd;fill:#B634CB;}
	.st4{fill:#FFFFFF;}
</style>
<g>
	<defs>
		<path id="SVGID_1_" d="M73.5,5.9h365c37,0,67.2,30.3,67.2,67.2v365c0,37-30.3,67.2-67.2,67.2h-365c-37,0-67.2-30.3-67.2-67.2v-365
			C6.3,36.2,36.5,5.9,73.5,5.9L73.5,5.9z"/>
	</defs>
	<clipPath id="SVGID_2_">
		<use xlink:href="#SVGID_1_"  style="overflow:visible;"/>
	</clipPath>
	<path class="st0" d="M73.5,5.9h365c37,0,67.2,30.3,67.2,67.2v365c0,37-30.3,67.2-67.2,67.2h-365c-37,0-67.2-30.3-67.2-67.2v-365
		C6.3,36.2,36.5,5.9,73.5,5.9L73.5,5.9z"/>
	<path class="st1" d="M506,331v108.3c0,9.3-1.9,18.2-5.4,26.3c-3.9,9.1-9.8,17.2-17.1,23.8c-11.9,10.7-27.6,17.2-44.8,17.2H151.4
		l-61.8-61.8c-0.6-0.5-1.1-1.1-1.5-1.8c-0.1-0.2-0.2-0.3-0.3-0.5c-0.5-1-0.8-2.1-0.8-3.3v-27.3h-6.1c-3.2,0-5.9-2.6-5.9-5.9V201.8
		c0-3.3,2.6-5.9,5.9-5.9h46.6c3.6,0,6.9,1.1,9.7,2.9c0-0.5-0.1-0.9-0.2-1.3l-0.1-0.4l-0.2-0.7c-0.1-0.2-0.2-0.4-0.3-0.6
		c0,0-0.1-0.1-0.1-0.1c-0.2-0.4-0.4-0.7-0.7-1c-0.1-0.2-0.3-0.4-0.5-0.5l9.3,9.3c-0.5,0.5-1.1,0.9-1.6,1.4v0
		c1.5,2.6,2.3,5.5,2.3,8.7v3.7l14.4,14.4c2.5-0.8,5-1.7,7.5-2.6c0.7-0.3,1.4-0.5,2.1-0.8c3-1.2,6-2.6,9-4
		c17.5-7.8,32.3-20.6,42.5-36.9c9.7-17.7,14.5-37.6,13.9-57.8v-5.3l-0.9-1.2c-0.1-0.1-0.2-0.3-0.3-0.4l-1.4-1.6l2.7,2.7v-15.7
		c0.2-2.9,1-5.7,2.3-8.3c5.4-10.3,18.1-14.3,28.3-8.9c24.3,11,38.9,36.3,36.2,62.9c-1.4,11.9-3.1,18.3-7,29.8
		c-1.4,4.3-3.2,9.2-5.3,15.4c-0.9,2.6-1.8,5.3-2.8,8.3h79.5c10.1,0,19.7,3.9,26.8,10.9c0,0,0,0,0,0c2.7,2,5.2,4.2,7.3,6.8L506,331z"
		/>
	<g class="st2">
		<g>
			<path class="st3" d="M693.6,531.4L506,343.8l-96.1-96.1l-0.2-1.6c0-0.2-0.1-0.3-0.1-0.5l-0.3-1.5c-0.2-0.7-0.3-1.5-0.5-2.2
				c0,0,0,0,0,0c-0.2-0.8-0.4-1.5-0.7-2.2l-0.5-1.4c-0.2-0.7-0.5-1.3-0.8-2c0,0,0,0,0,0l-0.8-1.8l-0.9-1.7l-0.9-1.6
				c0-0.1-0.1-0.1-0.1-0.2l-1-1.5l-1.1-1.6l-1.2-1.5l-1.2-1.5l0.1,0.1L506,331l177.4,177.4l1.2,1.5l1.2,1.5l1.1,1.6l1,1.6l1,1.7
				l0.9,1.7l0.8,1.8l0.7,1.8l0.6,1.9l0.6,1.9l0.5,1.9l0.4,2L693.6,531.4z"/>
			<path class="st3" d="M409.9,247.7l283.7,283.7l0.1,0.4l0.1,0.5l0,0.5l0,0.5l0,0.5l0,0.5l0,0.5l0,0.5l0,0.5v0.5l0,0.5v0.5l0,0.5
				l0,0.5l0,0.5l0,0.6L410.1,255.7l0-0.5l0-0.5l0-0.5l0-0.5l0-0.5v-0.5V252l0-0.5l0-0.5l0-0.5l0-0.5l0-0.5l0-0.5l0-0.5l-0.1-0.5
				L409.9,247.7z"/>
			<path class="st3" d="M294.3,183.5c-1.4,4.3-3.2,9.2-5.3,15.4l-44.1-44.1v0l0,0l0-2.3l0-0.3v0l-0.2-2.1c0-0.2,0-0.4-0.1-0.6
				l-0.3-2.1c0-0.2-0.1-0.4-0.1-0.6l-0.4-2.1l-0.5-2.4c0,0,0,0,0,0l-0.7-2.4c0,0,0,0,0,0l-0.8-2.3c0,0,0-0.1,0-0.1l-0.9-2.2l-1-2.2
				c0,0,0,0,0,0l-1-2l-0.1-0.1l-0.1-0.2l-1.1-1.9c0,0,0-0.1,0-0.1l-1.2-1.9c0,0,0,0,0-0.1l-1.3-1.9c-0.1-0.2-0.3-0.4-0.5-0.6v0
				l-0.9-1.2c-0.1-0.1-0.2-0.3-0.3-0.4l-1.4-1.6L294.3,183.5z"/>
			<polygon class="st3" points="528.6,438.4 406.3,316.2 395.8,305.7 300,209.9 297.4,207.2 318.1,207.2 320.7,209.9 398.4,287.5 
				407.6,296.7 407.6,296.7 506,395.1 515.5,404.6 517.1,406.4 518.6,408.3 520,410.3 521.3,412.3 522.5,414.5 523.6,416.6 
				524.6,418.8 525.5,421.1 526.3,423.5 527,425.8 527.5,428.3 528,430.8 528.3,433.3 528.5,435.8 			"/>
			<path class="st3" d="M420.8,482.9l-40.2-40.2l0,0l-45-45L166.9,229c0.7-0.3,1.4-0.5,2.1-0.8l168.9,169l44.4,44.4l0,0l36.3,36.3
				l0.5,0.5l0.4,0.5l0.4,0.6l0.3,0.6l0.2,0.7l0.2,0.7l0.1,0.7L420.8,482.9z"/>
			<path class="st3" d="M357.5,449.4l283.7,283.7H527.9L244.2,449.4L357.5,449.4z"/>
			<path class="st3" d="M244.2,449.4l283.7,283.7h-2.1l-2.1,0l-2.1,0l-2.1,0l-2.1-0.1l-2.1-0.1l-2.1-0.1l-2.1-0.1l-2.1-0.1l-2.1-0.1
				l-2.1-0.1l-2.1-0.1l-2.1-0.1L498,732l-2.1-0.2l-2.1-0.2l-2.1-0.2l-2.1-0.2l-2.1-0.2l-2.1-0.2l-2.1-0.3l-2.1-0.3l-2.1-0.3
				l-2.1-0.3l-2.1-0.3l-2.1-0.3l-2.1-0.3l-2.1-0.3l-2.1-0.3l-2.1-0.3l-2.1-0.4l-2.1-0.4L176.2,443.4l2.1,0.4l2.1,0.4l2.1,0.4
				l2.1,0.3l2.1,0.3l2.1,0.3l2.1,0.3l2.1,0.3l2.1,0.3l2.1,0.3l2.1,0.3l2.1,0.2l2.1,0.2l2.1,0.2l2.1,0.2l2.1,0.2l2.1,0.2l2.1,0.2
				l2.1,0.2l2.1,0.1l2.1,0.1l2.1,0.1l2.1,0.1l2.1,0.1l2.1,0.1l2.1,0.1l2.1,0.1l2.1,0.1l2.1,0.1l2.1,0l2.1,0L244.2,449.4z"/>
			<path class="st3" d="M176.2,443.4l283.7,283.7l-0.5-0.1l-0.5-0.1l-0.5-0.1l-0.5-0.1l-0.5-0.1l-0.5-0.1l-0.5-0.1l-0.5-0.1
				l-0.5-0.1l-0.5-0.1l-0.5-0.2l-0.5-0.2l-0.5-0.2l-0.5-0.2l-0.5-0.2l-0.5-0.2L168.6,441.2l0.5,0.2l0.5,0.2l0.5,0.2l0.5,0.2l0.5,0.2
				l0.5,0.2l0.5,0.2l0.5,0.1l0.5,0.1l0.5,0.1l0.5,0.1l0.5,0.1l0.5,0.1l0.5,0.1l0.5,0.1L176.2,443.4z"/>
			<path class="st3" d="M168.6,441.2l283.7,283.7l-31.5-13.1L137.1,428.1L168.6,441.2z"/>
			<path class="st3" d="M137.1,428.1l283.7,283.7v11.1L137.1,439.2V428.1z"/>
			<path class="st3" d="M137.1,439.2l283.7,283.7l0,0.7l-0.1,0.7l-0.2,0.7l-0.2,0.7l-0.3,0.6l-0.4,0.6l-0.4,0.6l-0.5,0.5l-0.5,0.5
				l-0.6,0.4l-0.6,0.4l-0.6,0.3l-0.7,0.2l-0.7,0.2l-0.7,0.1l-0.7,0L130,446.4l0.7,0l0.7-0.1l0.7-0.2l0.7-0.2l0.6-0.3l0.6-0.4
				l0.5-0.4l0.5-0.5l0.5-0.5l0.4-0.6l0.4-0.6l0.3-0.6l0.2-0.6l0.2-0.7l0.1-0.7L137.1,439.2z"/>
			<path class="st3" d="M130,446.4L413.6,730h-35.8L94.1,446.4H130z"/>
			<path class="st3" d="M377.8,730l-0.7,0l-0.7-0.1l-0.7-0.2l-0.7-0.2l-0.6-0.3l-0.6-0.4l-0.6-0.4L89.6,444.7l0.5,0.4
				c0.3,0.2,0.5,0.3,0.8,0.5l0.4,0.2L92,446l0.7,0.2l0.7,0.1l0.7,0l60.2,60.2L377.8,730z"/>
			<path class="st3" d="M145,213.5v3.7l-7.9-7.9v-10.1l5.6,5.6c0,0,0,0,0,0v0C144.2,207.4,145,210.4,145,213.5z"/>
			<path class="st3" d="M420.8,482.9V493L159.4,231.6c2.5-0.8,5-1.7,7.5-2.6l168.8,168.8l45,45l0,0L420.8,482.9z"/>
			<path class="st3" d="M400.7,406.5l283.7,283.7l-0.1,2.2l-0.2,2.2l-0.3,2.1l-0.4,2.1l-0.5,2.1l-0.6,2l-0.7,2l-0.8,1.9l-0.9,1.9
				l-1,1.9l-1,1.8l-1.1,1.7l-1.2,1.7l-1.3,1.6l-1.4,1.6l-1.4,1.5l-1.5,1.4l-1.6,1.3l-1.6,1.3l-1.7,1.2l-1.7,1.1l-1.8,1l-1.9,1
				l-1.9,0.9l-2,0.8l-2,0.7l-2,0.6l-2.1,0.5l-2.1,0.4l-2.2,0.3l-2.2,0.2l-2.2,0.1L357.5,449.4l2.2-0.1l2.2-0.2l2.1-0.3l2.1-0.4
				l2.1-0.5l2-0.6l2-0.7l2-0.8l1.9-0.9l1.9-0.9l1.8-1l1.7-1.1l1.7-1.2l1.6-1.3l1.6-1.3l1.5-1.4l1.4-1.5l1.3-1.6l1.3-1.6l1.2-1.7
				l1.1-1.7l1-1.8l1-1.9l0.9-1.9l0.8-1.9l0.7-2l0.6-2l0.5-2.1l0.4-2.1l0.3-2.1l0.2-2.2L400.7,406.5z"/>
			<path class="st3" d="M528.6,438.4v55.1l-28-28l-97.5-97.5l0,0L387,351.9L244.9,209.9h0v0l0,0v-55.1l0,0v0l44.1,44.1
				c-0.9,2.6-1.8,5.3-2.8,8.3h11.2l2.6,2.7l95.8,95.8l10.5,10.5L528.6,438.4z"/>
			<path class="st3" d="M410.1,255.7l283.7,283.7l-9.4,150.9L400.7,406.5L410.1,255.7z"/>
		</g>
		<path class="st3" d="M410.2,252v1c0,0.2,0,0.4,0,0.6c0,0.7,0,1.4-0.1,2.1v0l-2.6,41v0l-1.2,19.5l-3.2,51.9l-2.4,38.5l-0.1,2.2
			l-0.1,1.8c0,0.1,0,0.1,0,0.2c0,0,0,0.1,0,0.1c0,0,0,0.1,0,0.1l-0.3,2.1l-0.4,2.1l-0.5,2.1c-0.4,1.4-0.8,2.7-1.3,4l-0.8,1.9
			c-0.5,1.3-1.2,2.5-1.8,3.8l-0.9,1.5c-0.1,0.2-0.2,0.4-0.4,0.6l-1,1.5c-0.8,1.1-1.6,2.2-2.5,3.3c0,0,0,0,0,0l-1.1,1.3
			c-0.2,0.2-0.3,0.4-0.5,0.5c0,0,0,0,0,0l-1.2,1.2l-1.5,1.4c0,0-0.1,0.1-0.1,0.1l-1.4,1.2c-0.6,0.5-1.1,0.9-1.7,1.3
			c-0.3,0.2-0.6,0.4-0.9,0.6c-0.2,0.1-0.3,0.2-0.5,0.3c0,0,0,0,0,0c0,0-0.1,0-0.1,0.1c0,0-0.1,0.1-0.1,0.1c-0.1,0.1-0.2,0.1-0.3,0.2
			c-0.3,0.2-0.5,0.3-0.8,0.5c-0.2,0.1-0.4,0.3-0.7,0.4c-0.1,0.1-0.3,0.2-0.5,0.3l-1.2,0.7c-0.2,0.1-0.4,0.2-0.5,0.3c0,0,0,0-0.1,0
			c0,0,0,0-0.1,0l-1.5,0.8h0l-1.9,0.9c-0.1,0-0.2,0.1-0.3,0.1l-1.3,0.5c0,0,0,0-0.1,0c-0.3,0.1-0.5,0.2-0.8,0.3l-1,0.4
			c-0.2,0-0.3,0.1-0.5,0.2c-0.2,0-0.3,0.1-0.4,0.1l-1.6,0.5c-0.5,0.1-1,0.2-1.5,0.3c-0.2,0-0.4,0.1-0.5,0.1c-0.2,0-0.4,0.1-0.5,0.1
			c0,0,0,0,0,0l-1.1,0.2c0,0-0.1,0-0.1,0c-0.2,0-0.4,0.1-0.7,0.1c-0.2,0-0.4,0.1-0.7,0.1c-0.1,0-0.2,0-0.3,0c-0.1,0-0.2,0-0.3,0
			c-0.6,0.1-1.1,0.1-1.7,0.2c0,0-0.1,0-0.1,0c-0.3,0-0.5,0-0.8,0.1c-0.1,0-0.3,0-0.4,0c-0.1,0-0.3,0-0.4,0l-1.1,0H244.2
			c-1.1,0-2.1,0-3.2,0c-1.6,0-3.2,0-4.8-0.1c-0.2,0-0.4,0-0.5,0c-1.4,0-2.8-0.1-4.3-0.1c0,0,0,0,0,0c-1.1,0-2.1-0.1-3.2-0.1
			c-2.1-0.1-4.3-0.2-6.4-0.3c-1.1-0.1-2.1-0.1-3.2-0.2c-1.4-0.1-2.8-0.2-4.2-0.3c-1.4-0.1-2.8-0.2-4.2-0.4c-0.1,0-0.2,0-0.3,0
			c-1-0.1-2.1-0.2-3.1-0.3c-1-0.1-2.1-0.2-3.1-0.3c-3.5-0.4-7.1-0.8-10.6-1.3c-1.1-0.1-2.1-0.3-3.2-0.4c-1.1-0.2-2.1-0.3-3.2-0.5
			c-2.1-0.3-4.2-0.7-6.3-1c0,0,0,0,0,0c-1.4-0.2-2.8-0.5-4.2-0.7c-1.6-0.3-3.2-0.7-4.8-1.2c-0.3-0.1-0.6-0.2-1-0.3
			c-0.6-0.2-1.3-0.5-1.9-0.7h0l-31.5-13.1v11.1l0,0.7c0,0,0,0.1,0,0.1l-0.1,0.5c0,0.1,0,0.2-0.1,0.3l-0.1,0.5l-0.2,0.6l-0.3,0.6
			c0,0,0,0,0,0l-0.4,0.6l-0.2,0.3c0,0,0,0,0,0c0,0,0,0,0,0c-0.1,0.1-0.2,0.2-0.3,0.3c-0.1,0.1-0.2,0.3-0.3,0.4c0,0-0.1,0.1-0.1,0.1
			c-0.1,0.1-0.3,0.2-0.4,0.3c-0.4,0.3-0.9,0.6-1.4,0.9c-0.3,0.2-0.7,0.3-1.1,0.4l-0.6,0.2c-0.1,0-0.2,0-0.3,0c-0.1,0-0.2,0-0.3,0
			c-0.1,0-0.2,0-0.3,0c0,0,0,0,0,0c-0.2,0-0.4,0-0.6,0H94.1c-0.2,0-0.4,0-0.6,0c0,0,0,0,0,0c-0.1,0-0.2,0-0.3,0c-0.1,0-0.2,0-0.3,0
			c-0.1,0-0.2,0-0.3,0L92,446c-0.4-0.1-0.7-0.3-1.1-0.4c-0.3-0.1-0.5-0.3-0.8-0.5l-0.5-0.3c0,0,0,0-0.1-0.1c0,0,0,0,0,0
			c-0.6-0.5-1.1-1.1-1.5-1.8c-0.1-0.2-0.2-0.3-0.3-0.5c-0.5-1-0.8-2.1-0.8-3.3v-240c0-1.2,0.3-2.3,0.8-3.3h39.6
			c3.6,0,6.9,1.1,9.7,2.9c0,0.1,0,0.3,0,0.4v10.1c1.7-1.3,3.6-2.8,5.6-4.5c1.5,2.6,2.3,5.5,2.3,8.7v3.7l14.4,14.4
			c2.5-0.8,5-1.7,7.5-2.6c0.7-0.3,1.4-0.5,2.1-0.8c3-1.2,6-2.6,9-4c17.5-7.8,32.3-20.6,42.5-36.9c9.7-17.7,14.5-37.6,13.9-57.8v-5.3
			c0.2,0.2,0.3,0.4,0.5,0.6l1.3,1.9c0,0,0,0,0,0.1l1.2,1.9c0,0,0,0,0,0.1l1.1,1.9l0.1,0.2l0.1,0.1l1,2c0,0,0,0,0,0
			c0.7,1.4,1.3,2.9,1.9,4.4c0,0,0,0.1,0,0.1l0.8,2.3c0,0,0,0,0,0l0.7,2.4c0,0,0,0,0,0l0.5,2.4l0.4,2.1l0.1,0.4l0,0.3l0.3,2.1l0,0.2
			l0,0.4l0.2,2.1v0l0,0.3c0,0.8,0.1,1.5,0.1,2.3v55.2h0l55.1,0l20.7,0l46.4,0c9.4,0,18.2,3.1,25.4,8.3c0,0,0,0,0,0
			c2.7,2,5.2,4.2,7.3,6.8c0.2,0.2,0.3,0.4,0.5,0.6c0.2,0.2,0.3,0.4,0.5,0.6l0.2,0.3l0.1,0.1c0.3,0.4,0.6,0.7,0.9,1.1l0.2,0.3
			l0.9,1.3c0.2,0.2,0.3,0.4,0.4,0.7c0,0,0,0,0,0c0.3,0.4,0.5,0.8,0.7,1.1l0.1,0.1l0,0.1l0.9,1.6c0.6,1.1,1.2,2.3,1.7,3.5
			c0,0,0,0,0,0l0.6,1.5l0,0.1l0.1,0.2l0.1,0.1c0.2,0.5,0.3,0.9,0.5,1.4l0.1,0.3l0.1,0.4l0,0.1l0,0.2l0.4,1.2c0,0,0,0,0,0l0.3,1.5
			l0.1,0.5l0,0.3c0.1,0.5,0.2,1,0.3,1.5l0,0.1l0,0.4c0.1,0.5,0.2,1.1,0.3,1.6v0c0,0.1,0,0.3,0,0.4v0l0,0.5l0,0.5l0,0.5v0
			c0,0.3,0,0.6,0,0.9c0,0.3,0,0.6,0,1C410.2,251.7,410.2,251.8,410.2,252z"/>
	</g>
	<g class="st2">
		<path class="st4" d="M145,213.5v180.8c0,9.7-7.9,17.6-17.6,17.6H80.8c-3.2,0-5.9-2.6-5.9-5.9V201.8c0-3.3,2.6-5.9,5.9-5.9h46.6
			c3.6,0,6.9,1.1,9.7,2.9c2.3,1.5,4.3,3.6,5.6,6c0,0,0,0,0,0v0C144.2,207.4,145,210.4,145,213.5z"/>
		<path class="st4" d="M403.6,251l-5.2,36.5l-2.6,18.1l-4.1,28.7c-0.9,6.2-2.5,12.1-4.8,17.6c-8.7,21.7-26.8,38.3-49,45.2
			c-0.8,0.2-1.5,0.5-2.3,0.7c-2.7,0.8-5.5,1.4-8.3,1.8c-4,0.6-8,1-12.1,1H206.2c-13.3,0-26-5.3-35.4-14.7c-3.9-3.9-8.7-7-13.9-8.9
			V232.4c0.9-0.3,1.7-0.5,2.6-0.8c2.5-0.8,5-1.7,7.5-2.6c0.7-0.3,1.4-0.5,2.1-0.8c3-1.2,6-2.6,9-4c17.5-7.8,32.3-20.6,42.5-36.9
			c9.7-17.7,14.5-37.6,13.9-57.8v-21.6c0.2-2.9,1-5.7,2.3-8.3c5.4-10.3,18.1-14.3,28.3-8.9c24.3,11,38.9,36.3,36.2,62.9
			c-1.4,11.9-3.1,18.3-7,29.8c-1.4,4.3-3.2,9.2-5.3,15.4c-0.9,2.6-1.8,5.3-2.8,8.3h79.5c10.1,0,19.7,3.9,26.8,10.9c0,0,0,0,0,0
			c0.7,0.7,1.5,1.5,2.1,2.3C402,228.8,405.2,240,403.6,251z"/>
	</g>
</g>
</svg>
