<?xml version="1.0" encoding="utf-8"?>
<!-- Generator: Adobe Illustrator 24.1.0, SVG Export Plug-In . SVG Version: 6.00 Build 0)  -->
<svg version="1.1" id="Layer_1" xmlns="http://www.w3.org/2000/svg" xmlns:xlink="http://www.w3.org/1999/xlink" x="0px" y="0px"
	 viewBox="0 0 512 512" style="enable-background:new 0 0 512 512;" xml:space="preserve">
<style type="text/css">
	.st0{fill-rule:evenodd;clip-rule:evenodd;fill:#DBAD09;}
	.st1{clip-path:url(#SVGID_2_);fill:#FFD53D;}
	.st2{clip-path:url(#SVGID_2_);fill-rule:evenodd;clip-rule:evenodd;fill:#DBAD09;}
	.st3{clip-path:url(#SVGID_2_);}
	.st4{fill-rule:evenodd;clip-rule:evenodd;fill:#FEFEFE;}
</style>
<path class="st0" d="M-397.6,546.3L-526.8,417l-39-67.5l33.2-24v-29.3l-33.2-33.2l39-67.5l37.4,16.8l33.4-19.3l4.1-40.8h77.9
	l53.1,53.1l21.8-9.8L-173,321.7v149.6c0,41.2-33.8,75-75,75L-397.6,546.3z"/>
<g>
	<defs>
		<path id="SVGID_1_" d="M91,5.7h330c41.4,0,75,33.6,75,75v330c0,41.4-33.6,75-75,75H91c-41.4,0-75-33.6-75-75v-330
			C16,39.3,49.6,5.7,91,5.7z"/>
	</defs>
	<clipPath id="SVGID_2_">
		<use xlink:href="#SVGID_1_"  style="overflow:visible;"/>
	</clipPath>
	<path class="st1" d="M91,5.7h330c41.4,0,75,33.6,75,75v330c0,41.4-33.6,75-75,75H91c-41.4,0-75-33.6-75-75v-330
		C16,39.3,49.6,5.7,91,5.7z"/>
	<polygon class="st2" points="363.8,257.5 599,512 307,580 213.9,537 126,417.5 135,293.6 166.3,281.3 201,281.3 256,257.5 283,265 
			"/>
	<g id="_687482176" class="st3">
		<path id="_687482704" class="st4" d="M298.2,150.4c-0.7,0-1.5-0.1-2.2-0.4l-20.8-8.5l-20.8,8.5c-1.8,0.8-3.9,0.5-5.6-0.7
			c-1.6-1.2-2.5-3.1-2.4-5.1l1.7-22.4l-14.5-17.1c-1.3-1.5-1.7-3.6-1.1-5.5c0.6-1.9,2.2-3.3,4.1-3.8l21.8-5.3l11.8-19.1
			c1-1.7,2.9-2.7,4.9-2.7c2,0,3.8,1,4.9,2.7l11.8,19.1l21.8,5.3c1.9,0.5,3.5,1.9,4.1,3.8c0.6,1.9,0.2,4-1.1,5.5l-14.5,17.1l1.7,22.4
			c0.1,2-0.7,3.9-2.4,5.1C300.6,150,299.4,150.4,298.2,150.4L298.2,150.4z"/>
		<path id="_687483304" class="st4" d="M358,185.1c-3.2,0-5.7-2.6-5.7-5.7V174c0-3.2,2.6-5.7,5.7-5.7s5.7,2.6,5.7,5.7v5.3
			C363.8,182.5,361.2,185.1,358,185.1z"/>
		<path id="_687483280" class="st4" d="M358,224.2c-3.2,0-5.7-2.6-5.7-5.7v-5.3c0-3.2,2.6-5.7,5.7-5.7s5.7,2.6,5.7,5.7v5.3
			C363.8,221.6,361.2,224.2,358,224.2z"/>
		<path id="_687483184" class="st4" d="M380.3,202H375c-3.2,0-5.7-2.6-5.7-5.7s2.6-5.7,5.7-5.7h5.3c3.2,0,5.7,2.6,5.7,5.7
			S383.5,202,380.3,202z"/>
		<path id="_687482992" class="st4" d="M341.1,202h-5.3c-3.2,0-5.7-2.6-5.7-5.7s2.6-5.7,5.7-5.7h5.3c3.2,0,5.7,2.6,5.7,5.7
			S344.3,202,341.1,202z"/>
		<path id="_687482848" class="st4" d="M185.9,185.1c-3.2,0-5.7-2.6-5.7-5.7V174c0-3.2,2.6-5.7,5.7-5.7c3.2,0,5.7,2.6,5.7,5.7v5.3
			C191.6,182.5,189,185.1,185.9,185.1z"/>
		<path id="_687483088" class="st4" d="M185.9,224.2c-3.2,0-5.7-2.6-5.7-5.7v-5.3c0-3.2,2.6-5.7,5.7-5.7c3.2,0,5.7,2.6,5.7,5.7v5.3
			C191.6,221.6,189,224.2,185.9,224.2z"/>
		<path id="_687482752" class="st4" d="M208.1,202h-5.3c-3.2,0-5.7-2.6-5.7-5.7s2.6-5.7,5.7-5.7h5.3c3.2,0,5.7,2.6,5.7,5.7
			S211.3,202,208.1,202z"/>
		<path id="_687482656" class="st4" d="M169,202h-5.3c-3.2,0-5.7-2.6-5.7-5.7s2.6-5.7,5.7-5.7h5.3c3.2,0,5.7,2.6,5.7,5.7
			S172.1,202,169,202z"/>
		<path id="_687481816" class="st4" d="M176.9,423.2h-45.2c-3.2,0-5.7-2.6-5.7-5.7V287.1c0-3.2,2.6-5.7,5.7-5.7h45.2V423.2
			L176.9,423.2z M188.4,278.6c25.3-11,53.2-33,58.6-76.7c0.5-4.2,0.8-8.6,0.9-13c0.1-9.1,5.7-17.6,14.6-22c9-4.4,19.3-3.7,26.9,1.9
			c8.4,6.2,17.3,20.4,12.1,53.4c-2.6,16.1-7.9,26.7-13.1,33.6l63.8-1c14.1,0,25.5,11.4,25.5,25.4c0,8-3.7,15.1-9.4,19.7
			c0.6,0.5,1.2,1,1.7,1.6c4.8,4.8,7.4,11.2,7.4,17.9c0,7.9-3.7,15-9.3,19.8c5.7,4.5,9.3,11.5,9.3,19.4c0,7.9-3.6,15-9.3,19.6
			c5.7,4.7,9.3,11.7,9.3,19.6c0,14-11.4,25.4-25.4,25.4h-32.3h-31.2H188.4L188.4,278.6L188.4,278.6z"/>
	</g>
</g>
</svg>
