<?xml version="1.0" encoding="utf-8"?>
<!-- Generator: Adobe Illustrator 24.1.0, SVG Export Plug-In . SVG Version: 6.00 Build 0)  -->
<svg version="1.1" id="Layer_1" xmlns="http://www.w3.org/2000/svg" xmlns:xlink="http://www.w3.org/1999/xlink" x="0px" y="0px"
	 viewBox="0 0 512 512" style="enable-background:new 0 0 512 512;" xml:space="preserve">
<style type="text/css">
	.st0{clip-path:url(#SVGID_2_);fill:#5E9CEA;}
	.st1{clip-path:url(#SVGID_2_);fill:#3D7EC4;}
	.st2{clip-path:url(#SVGID_2_);fill-rule:evenodd;clip-rule:evenodd;fill:#FFFFFF;}
</style>
<g>
	<defs>
		<path id="SVGID_1_" d="M497.8,90.5c0-41.4-33.6-75-75-75h-330c-32.5,0-60.2,20.7-70.6,49.7c-5.2,10.2-8.1,21.7-8.1,33.8v330
			c0,41.4,33.6,75,75,75h330c32.5,0,60.2-20.7,70.6-49.7c5.2-10.2,8.1-21.7,8.1-33.8V90.5z"/>
	</defs>
	<clipPath id="SVGID_2_">
		<use xlink:href="#SVGID_1_"  style="overflow:visible;"/>
	</clipPath>
	<path class="st0" d="M497.8,89.7c0-41.4-33.6-75-75-75h-330c-32.5,0-60.2,20.7-70.6,49.7c-5.2,10.2-8.1,21.7-8.1,33.8v330
		c0,41.4,33.6,75,75,75h330c32.5,0,60.2-20.7,70.6-49.7c5.2-10.2,8.1-21.7,8.1-33.8V89.7z"/>
	<polygon class="st1" points="409.3,210.2 628.9,433.6 337.1,530.1 261.3,543.1 218.5,524 98.9,283.5 98.9,272.8 118.3,195.4 
		120.4,192.2 123.9,192.2 145.4,195.4 156.3,202.9 166.8,208 183.5,215.8 232.9,219 241.4,214.5 258,210.4 285.3,214.5 296.5,213.8 
		313.2,208.3 318.3,205.6 318,198.3 324.4,192.2 330,188.9 330,184.3 325.8,178 327.8,171 346.9,155.2 348.9,153.2 372.1,175.7 
		386,188.6 	"/>
	<path class="st2" d="M353.2,192.9c-14.4,0-14.4-21.9,0-21.9C367.6,171,367.6,192.9,353.2,192.9z M211.6,297c-8.4,0-16.3-4.2-14.6-9
		c1.9-5.4,14.6-42.6,15.9-44.5l18-22.3c-16.1,0-40.1,1.2-53.6-0.6l-18,67.8c6,10.2,13.4,19.2,22.5,27.3c2.5-6.5,5.2-12.5,13.8-12.5
		c5,0,9.8,3.3,11.9,7.7c6.9-2.7,15.2,0.6,18.2,7.3c9-3.8,19.6,2.7,20.2,12.5c10-1.3,18.6,8.6,15.7,18.4c24,2.5,39.4-1.7,42.2-6
		l-32.1-8.3c-5.4-1.3-3.3-9.8,2.3-8.4l33.6,8.6c4.8-1.5,10.8-4.8,11.5-7.5c0.2-0.8-0.4-1.9-1.2-2.7l-46.8-12.1
		c-5.4-1.5-3.3-10,2.3-8.4l46.7,12.1c4.8-1.7,10.8-4.8,11.5-7.7c0.2-0.8-0.4-1.9-1.2-2.7l-45.7-13.6c-5.4-1.7-2.9-10,2.7-8.4
		l45.1,13.6c4.4-2.1,10.2-5.8,10.8-9c0.2-0.4,0.4-1.5-1.3-3.5l-81.4-33.6c-1.5,0-6.1,10.6-18.6,12.1
		C233.2,291.2,220.6,297,211.6,297z M238.6,212.5c16.1-12.3,47.6-2.3,54.3-2.3c6.9,0,14.2-3.3,19.4-6.3c-1.2-1.7-1.2-4.2,0.4-5.8
		L325,186c-2.5-2.5-8.1-6.5-4.2-10.4l26.1-26.1c1.7-1.7,4.6-1.7,6.3,0l65.3,65.3c1.7,1.7,1.7,4.4,0,6.1l-26.1,26.3
		c-3.8,3.6-7.9-1.7-10.4-4.2l-12.1,12.3c-1.5,1.3-3.8,1.5-5.6,0.6L350,281c6.9,10-2.9,18.6-10.6,22.8c4.2,9.2-5.2,15.9-12.3,19.2
		c4,9.8-7.3,16.7-14.2,19.4c-0.2,16.9-37.4,17.1-54.5,15l-1.2,3.1c-4.4,11.9-21.3,12.1-26.5,1c-7.1,3.1-15.6-0.2-18.8-7.1
		c-9.2,4-20-3.1-20-13.2c-9,0.6-16.1-8.3-13.4-16.9c-10.9-9-19.8-19.6-26.9-31.5l-14.8-4c-0.8,2.7-2.5,5.2-5.8,4.4l-35.7-9.6
		c-2.3-0.8-3.6-3.1-3.1-5.4l24-89.3c0.6-2.3,2.9-3.6,5.2-3.1l35.7,9.6c3.3,0.8,3.6,3.8,2.9,6.5l16.5,4.6c2.7,0.6,3.6,3.1,3.1,5.6
		C193.5,213.5,223.5,211.9,238.6,212.5z M206.4,287.4c12.7,5,22.1-8.4,28.4-29.2c1.7-6.3,8.1,1,16.7-9.6c3.5-4.4,7.7-7.3,13.8-4.8
		l77.6,32.1l15.2-26.3l-39.4-39.4c-7.5,4.6-20.5,10.6-31.5,8.1c-6-1.3-36.5-7.5-45.1,2.7l-21.9,27.5L206.4,287.4z M170.1,214.4
		l0.2-0.6l-12.5-3.5l-18.6,69.9l12.3,3.3L170.1,214.4z M334.2,182.9l54.9,54.9l20.2-20L350,158.8l-20,20L334.2,182.9z M331.2,192.2
		l-9.2,9l44.7,44.7l9.2-9L331.2,192.2z M207.5,321.9L201,339c-2.7,6.9,7.9,11.1,10.6,4l6.5-16.9
		C220.8,319.2,210.2,315.2,207.5,321.9z M195.6,311.9c-4.6,0-5.6,6.3-7.9,12.5c-1.2,2.9-1.9,6.3,1.7,7.7c2.3,1,4.8-0.4,5.8-2.5
		l4.4-11.7C200.8,315,198.7,311.9,195.6,311.9z M231.5,325.6c-2.3,0-4.4,1.5-5.4,3.6l-6.3,17.1c-2.7,6.9,7.9,10.8,10.6,4l6.5-17.1
		C238.2,329.6,235.4,325.6,231.5,325.6z M247.8,339.2c-6,0-6.7,8.4-9.4,14.2c-2.9,6.5,7.9,11.1,10.8,4l4-10.6
		C254.6,343.2,251.7,339.2,247.8,339.2z M101.9,276.2l27.3,7.3l21.7-80.8l-27.3-7.3L101.9,276.2z M120.4,272.8
		c-7.1,0-12.3-6.9-10.6-13.8c3.8-13.8,24.8-8.3,21.1,5.8C129.6,269.3,125.4,272.8,120.4,272.8z M120.4,259.7c-2.5,0-2.9,3.6-0.6,4.2
		C122.9,264.7,123.6,259.7,120.4,259.7z M353.2,179.9c-4.2,0-1.5,6.7,1.5,3.6C356.3,182,355,179.9,353.2,179.9z"/>
</g>
</svg>
