<?xml version="1.0" encoding="utf-8"?>
<!-- Generator: Adobe Illustrator 24.1.0, SVG Export Plug-In . SVG Version: 6.00 Build 0)  -->
<svg version="1.1" id="Layer_1" xmlns="http://www.w3.org/2000/svg" xmlns:xlink="http://www.w3.org/1999/xlink" x="0px" y="0px"
	 viewBox="0 0 512 512" style="enable-background:new 0 0 512 512;" xml:space="preserve">
<style type="text/css">
	.st0{clip-path:url(#SVGID_2_);fill:#0CB0FF;}
	.st1{clip-path:url(#SVGID_2_);fill-rule:evenodd;clip-rule:evenodd;fill:#0085D8;}
	.st2{clip-path:url(#SVGID_2_);}
	.st3{fill-rule:evenodd;clip-rule:evenodd;fill:#FFFFFF;}
</style>
<g>
	<defs>
		<path id="SVGID_1_" d="M91,16h330c41.4,0,75,33.6,75,75v330c0,41.4-33.6,75-75,75H91c-41.4,0-75-33.6-75-75V91
			C16,49.6,49.6,16,91,16z"/>
	</defs>
	<clipPath id="SVGID_2_">
		<use xlink:href="#SVGID_1_"  style="overflow:visible;"/>
	</clipPath>
	<path class="st0" d="M91,16h330c41.4,0,75,33.6,75,75v330c0,41.4-33.6,75-75,75H91c-41.4,0-75-33.6-75-75V91C16,49.6,49.6,16,91,16
		z"/>
	<path class="st1" d="M356,212.5L543.1,462l-90.9,96.5c0,0,2.6,7.7-46,6.6s-57.2-8.2-83.2-8.7c-26-0.5-61.3-41.9-61.3-41.9
		l-93-111.6l6.2-39.1l-16.3-35.2l-12.8-23l39.3,6l2-16.7l-6.6-21.4l-7.1-34.4l-3.1-4.6l-14.8-21.9l21.4-9.5l13.8-20.8L163.2,153
		l8.7-18.9l5.6-13.3l25.5,6.6l32.4-13.3l13-15.3l24,14.3l25,12.2l32.7,8.7l-0.5,10.8L318,186.7l4.1,20.8L356,212.5z"/>
	<g class="st2">
		<path class="st3" d="M279,285.3h-13.7c-1.3-10.7-10.8-18.8-21.8-18.1c-3.7-10.4-14.9-16.2-25.6-12.9c-3.8-3.8-9.2-6.2-14.8-6.1
			v-17.6c0-11.4-9.3-20.6-20.6-20.6c-10.6,0-19.3,8-20.5,18.2l-9.1-15.8c-1.1-1.8-0.4-4.2,1.4-5.2l21.4-12.4c-1.3-8.4-1.3-17,0-25.4
			l-21.4-12.4c-1.8-1.1-2.5-3.4-1.4-5.2l24.5-42.5c1.1-1.8,3.4-2.5,5.2-1.4l21.4,12.4c6.6-5.4,14-9.7,22-12.7V83
			c0-2.1,1.7-3.8,3.8-3.8h49c2.1,0,3.8,1.7,3.8,3.8v24.7c8,3,15.4,7.3,22,12.7l21.4-12.4c1.8-1.1,4.2-0.4,5.2,1.4l24.5,42.5
			c1.1,1.8,0.4,4.2-1.4,5.2l-21.4,12.4c1.3,8.4,1.3,17,0,25.4l21.4,12.4c1.8,1.1,2.5,3.4,1.4,5.2L331.5,255
			c-1.1,1.8-3.4,2.5-5.2,1.4l-21.4-12.4c-6.6,5.4-14,9.7-22,12.7v24.7C282.9,283.6,281.1,285.3,279,285.3L279,285.3z M254.5,239.1
			c-43.5,0-71.1-47.4-49.2-85.3c25.3-43.8,91.1-35.1,104.2,13.7C319.2,203.8,291.7,239.1,254.5,239.1L254.5,239.1z"/>
		<path class="st3" d="M245.5,406.8h-72.8c-2.1,0-3.8-1.7-3.8-3.8v-30.7c0-0.4,0.2-9.3-9.3-18.8c-11.6-11.6-14.8-23.4-14.7-24.8
			c0.1-3.3-2.8-11.2-4.7-15.7c-4.1-6.1-5.3-11.3-3.6-15.7c2.2-5.5,8.3-7,9.7-7c10.1,0.3,17.3,6.9,22.2,13.5v-73
			c0-7.8,6.4-14.2,14.2-14.2c7.8,0,14.2,6.4,14.2,14.2v25.6c7-3.6,15.6-0.9,19.2,6.1c8.6-6,22.3-1.3,22.3,12.8
			c9.4-4.9,20.8,1.9,20.8,12.6l-0.3,61.3l-9.5,23.9v30C249.3,405.1,247.6,406.8,245.5,406.8L245.5,406.8z"/>
		<path class="st3" d="M247.5,180.2v-28.3c0-9.3,14.1-9.3,14.1,0v30.4c0,1.4-0.4,2.7-1.1,3.8l-11.9,18.2c-5,7.7-16.9,0.2-11.8-7.7
			L247.5,180.2L247.5,180.2z"/>
	</g>
</g>
</svg>
