<?xml version="1.0" encoding="utf-8"?>
<!-- Generator: Adobe Illustrator 24.1.0, SVG Export Plug-In . SVG Version: 6.00 Build 0)  -->
<svg version="1.1" id="Layer_1" xmlns="http://www.w3.org/2000/svg" xmlns:xlink="http://www.w3.org/1999/xlink" x="0px" y="0px"
	 viewBox="0 0 512 512" style="enable-background:new 0 0 512 512;" xml:space="preserve">
<style type="text/css">
	.st0{clip-path:url(#SVGID_2_);fill:#46CC6B;}
	.st1{clip-path:url(#SVGID_2_);fill-rule:evenodd;clip-rule:evenodd;fill:#20A561;}
	.st2{clip-path:url(#SVGID_2_);}
	.st3{fill:#FFFFFF;}
</style>
<g>
	<defs>
		<path id="SVGID_1_" d="M91,15.9h330c41.4,0,75,33.6,75,75v330c0,41.4-33.6,75-75,75H91c-41.4,0-75-33.6-75-75v-330
			C16,49.4,49.6,15.9,91,15.9z"/>
	</defs>
	<clipPath id="SVGID_2_">
		<use xlink:href="#SVGID_1_"  style="overflow:visible;"/>
	</clipPath>
	<path class="st0" d="M91,16h330c41.4,0,75,33.6,75,75v330c0,41.4-33.6,75-75,75H91c-41.4,0-75-33.6-75-75V91C16,49.6,49.6,16,91,16
		z"/>
	<polyline class="st1" points="441.9,160 592.7,449.7 517.3,616.2 358.8,616.2 162.3,586.6 58.5,401.7 57.9,160 437.4,159.7 	"/>
	<g id="Ikon" class="st2">
		<path class="st3" d="M441.9,147.2v-32c0-10.6-8.6-19.2-19.2-19.2H77.1c-10.6,0-19.2,8.6-19.2,19.2v32H441.9z M397.1,108.8
			c7.1,0,12.8,5.7,12.8,12.8c0,7.1-5.7,12.8-12.8,12.8c-7.1,0-12.8-5.7-12.8-12.8C384.3,114.5,390,108.8,397.1,108.8z M365.1,108.8
			c7.1,0,12.8,5.7,12.8,12.8c0,7.1-5.7,12.8-12.8,12.8c-7.1,0-12.8-5.7-12.8-12.8C352.3,114.5,358,108.8,365.1,108.8z M102.7,115.2
			h204.8c3.5,0,6.4,2.9,6.4,6.4c0,3.5-2.9,6.4-6.4,6.4H102.7c-3.5,0-6.4-2.9-6.4-6.4C96.3,118.1,99.1,115.2,102.7,115.2z M57.9,160
			v236.8c0,10.6,8.6,19.2,19.2,19.2h345.6c10.6,0,19.2-8.6,19.2-19.2V160H57.9z M337.5,281.6c0,66.8-81.4,106.5-84.9,108.2
			c-1.7,0.8-3.8,0.8-5.5,0c-3.5-1.7-84.9-41.4-84.9-108.2v-56.5c0-3.6,2.9-6.4,6.5-6.4c0.2,0,0.3,0,0.5,0c0.3,0,36.4,2.2,75.8-43.7
			c2.5-2.7,6.7-2.9,9.4-0.4c0.1,0.1,0.3,0.2,0.4,0.4c39.4,45.9,75.5,43.7,75.8,43.7c3.6-0.2,6.7,2.5,6.9,6c0,0.1,0,0.2,0,0.3
			L337.5,281.6z M307,236.7c-1,0.1-25.1,1.4-52.3-29.2c-2.5-2.6-6.7-2.7-9.3-0.2c-0.1,0.1-0.1,0.1-0.2,0.2
			c-27.3,30.6-51.3,29.3-52.3,29.2c-3.6-0.3-6.7,2.4-6.9,5.9c0,0.2,0,0.3,0,0.5v38.5c0,46.8,58.7,75.5,61.2,76.7
			c1.7,0.8,3.8,0.8,5.5,0c2.5-1.2,61.2-29.8,61.2-76.7v-38.5c-0.1-3.6-3-6.4-6.6-6.4C307.2,236.7,307.1,236.7,307,236.7L307,236.7z
			 M278.4,266.2l-29.5,39.5c-2.1,2.8-6.1,3.4-9,1.3c-0.2-0.2-0.5-0.4-0.7-0.6l-17.4-17.4c-2.5-2.5-2.4-6.6,0.1-9.1
			c2.5-2.4,6.5-2.4,8.9,0l12.1,12.1l25.1-33.6c2-2.9,6-3.6,8.9-1.5s3.6,6,1.5,8.9C278.6,266,278.5,266.1,278.4,266.2L278.4,266.2z"
			/>
	</g>
</g>
</svg>
