<?xml version="1.0" encoding="utf-8"?>
<!-- Generator: Adobe Illustrator 24.1.0, SVG Export Plug-In . SVG Version: 6.00 Build 0)  -->
<svg version="1.1" id="Layer_1" xmlns="http://www.w3.org/2000/svg" xmlns:xlink="http://www.w3.org/1999/xlink" x="0px" y="0px"
	 viewBox="0 0 512 512" style="enable-background:new 0 0 512 512;" xml:space="preserve">
<style type="text/css">
	.st0{clip-path:url(#SVGID_2_);fill:#FF5A54;}
	.st1{clip-path:url(#SVGID_2_);fill-rule:evenodd;clip-rule:evenodd;fill:#DB3A3C;}
	.st2{clip-path:url(#SVGID_2_);}
	.st3{fill:#FFFFFF;}
	.st4{fill:#FF5A54;}
</style>
<g>
	<defs>
		<path id="SVGID_1_" d="M84.1,6h343.8C471,6,506,41,506,84.1v343.8c0,43.1-35,78.1-78.1,78.1H84.1C41,506,6,471,6,427.9V84.1
			C6,41,41,6,84.1,6z"/>
	</defs>
	<clipPath id="SVGID_2_">
		<use xlink:href="#SVGID_1_"  style="overflow:visible;"/>
	</clipPath>
	<path class="st0" d="M84.1,5h343.8C471,5,506,40,506,83.1v343.8c0,43.1-35,78.1-78.1,78.1H84.1C41,505,6,470,6,426.9V83.1
		C6,40,41,5,84.1,5z"/>
	<path class="st1" d="M450,120l126,215l-15,109c0,0-5,26-8,41s62,3-17,34s-98,33-111,38s-210-25-210-25L64.6,360.7L158,242l99-62
		l61-39l94-7L450,120z"/>
	<g class="st2">
		<path class="st3" d="M450.4,349.2c0,11.5-9.3,20.8-20.8,20.8H81.9c-11.5,0-20.8-9.3-20.8-20.8V147.5h160.3
			c5.4,0,10.7-1.3,15.5-3.7l43.9-21.9c2.9-1.4,6.1-2.2,9.3-2.1h160.3V349.2z"/>
		<path class="st3" d="M450.4,105.8H290.1c-5.4,0-10.7,1.3-15.5,3.7l-43.9,21.9c-2.9,1.4-6.1,2.2-9.3,2.1H61.1V98.8
			c0-11.5,9.3-20.8,20.8-20.8h347.7c11.5,0,20.8,9.3,20.8,20.8V105.8z"/>
		<path class="st4" d="M180.1,276.9L159,325.5c-1.2,2.6-0.6,5.7,1.5,7.7c2,2,5.1,2.6,7.7,1.5l48.6-21.1c0.9-0.3,1.7-0.9,2.4-1.6
			l126.2-126.2c10.2-10.5,9.9-27.3-0.6-37.5c-10.3-10-26.6-10-36.9,0C301.1,155.9,188.4,266.3,180.1,276.9z"/>
		<polygon class="st3" points="178.8,314.9 188.9,291.6 202,304.8 		"/>
		<path class="st3" d="M317.8,158.2c5-4.9,13-4.8,17.8,0.2c2.2,2.3,3.5,5.4,3.6,8.6c0.6,6.5-7.4,12.2-11.3,16.4l-17.7-17.8
			L317.8,158.2z"/>
		
			<rect x="183.8" y="223.8" transform="matrix(0.7071 -0.7071 0.7071 0.7071 -91.7645 251.1837)" class="st3" width="147" height="25.1"/>
		<path class="st4" d="M96,119.8c-3.8-0.1-6.9-3.2-6.8-7.1c0.1-3.7,3-6.7,6.7-6.8c3.8,0.1,6.9,3.2,6.8,7.1
			C102.7,116.6,99.8,119.6,96,119.8z"/>
		<path class="st4" d="M123.8,119.8c-3.8-0.1-6.9-3.3-6.8-7.1c0.1-3.7,3.1-6.7,6.8-6.8c3.8,0.1,6.9,3.3,6.8,7.1
			C130.5,116.7,127.5,119.7,123.8,119.8z"/>
		<path class="st4" d="M151.6,119.8c-3.8-0.1-6.9-3.2-6.8-7.1c0.1-3.7,3-6.7,6.7-6.8c3.8,0.1,6.9,3.2,6.8,7.1
			C158.3,116.6,155.3,119.6,151.6,119.8z"/>
	</g>
</g>
</svg>
