<?xml version="1.0" encoding="utf-8"?>
<!-- Generator: Adobe Illustrator 24.1.0, SVG Export Plug-In . SVG Version: 6.00 Build 0)  -->
<svg version="1.1" id="Layer_1" xmlns="http://www.w3.org/2000/svg" xmlns:xlink="http://www.w3.org/1999/xlink" x="0px" y="0px"
	 viewBox="0 0 512 512" style="enable-background:new 0 0 512 512;" xml:space="preserve">
<style type="text/css">
	.st0{clip-path:url(#SVGID_2_);fill:#FFD53D;}
	.st1{clip-path:url(#SVGID_2_);fill-rule:evenodd;clip-rule:evenodd;fill:#DBAD09;}
	.st2{clip-path:url(#SVGID_2_);}
	.st3{fill:#FFFFFF;}
</style>
<g id="_x31__search">
</g>
<g>
	<defs>
		<path id="SVGID_1_" d="M93.4,19.3h330c41.4,0,75,33.6,75,75v330c0,41.4-33.6,75-75,75h-330c-41.4,0-75-33.6-75-75v-330
			C18.4,52.8,52,19.3,93.4,19.3z"/>
	</defs>
	<clipPath id="SVGID_2_">
		<use xlink:href="#SVGID_1_"  style="overflow:visible;"/>
	</clipPath>
	<path class="st0" d="M91,16h330c41.4,0,75,33.6,75,75v330c0,41.4-33.6,75-75,75H91c-41.4,0-75-33.6-75-75V91C16,49.6,49.6,16,91,16
		z"/>
	<polygon class="st1" points="339.4,94 543.9,532.4 380.8,595.2 274.7,564.6 222.2,422.9 217,404.3 194.6,387.7 194.6,371.6 
		180.7,358.1 170.9,353.7 174,329.6 170.4,322.5 136.4,283.5 136.4,271.1 145.5,258.7 151.1,256 136.4,240 136.4,229 145.4,216.6 
		151.1,209.8 141.3,200 136.4,190.3 141.3,180.9 151.1,179.3 163.7,187 170.4,190.3 174,190.3 174,173 163.7,155.6 141.3,133.8 
		134.6,124.3 128,109.3 138,104.2 151.1,104.2 170.4,124.2 174.7,114.5 176.3,94 195.4,88.2 248.6,88.2 321,88.2 	"/>
	<g class="st2">
		<path class="st3" d="M240.9,348.2h34.8c2.8,0,5.1-2.3,5.1-5.1s-2.3-5.1-5.1-5.1h-34.8c-2.8,0-5.1,2.3-5.1,5.1
			S238.1,348.2,240.9,348.2z"/>
		<path class="st3" d="M235.4,114.5h45.9c2.8,0,5.1-2.3,5.1-5.1c0-2.8-2.3-5.1-5.1-5.1h-45.9c-2.8,0-5.1,2.3-5.1,5.1
			C230.3,112.2,232.6,114.5,235.4,114.5L235.4,114.5z"/>
		<path class="st3" d="M371.5,270.1c2.8,0,5.1-2.3,5.1-5.1v-49.1c0-6.7-5.4-12.1-12.1-12.1c-6.9,0-13.3,2.5-18.2,6.6V102.7
			c0-10.4-8.5-18.9-18.9-18.9h-138c-10.4,0-18.9,8.5-18.9,18.9v15.2l-14.7-14.7c-7.8-7.8-20.5-7.8-28.3,0c-7.8,7.8-7.8,20.5,0,28.3
			l43,43v10.2l-5.2-5.2c-3.8-3.8-8.8-5.9-14.2-5.9s-10.4,2.1-14.2,5.9c-7.8,7.8-7.8,20.5,0,28.3l8.6,8.6c-3.1,0.9-6.1,2.6-8.6,5.1
			c-3.8,3.8-5.9,8.8-5.9,14.2c0,5.4,2.1,10.4,5.9,14.2l8.7,8.7c-3.2,0.9-6.2,2.6-8.7,5.1c-7.8,7.8-7.8,20.5,0,28.3l25.5,25.5
			c2.3,2.3,5.1,4,8.1,4.9v26.9c0,8.8,6.2,16.3,14.4,18.4c4.3,16.6,16.1,30.1,32.2,36.4c0.7,0.3,1.1,0.9,1.1,1.6v16.8
			c0,6.7,5.4,12.1,12.1,12.1H306c6.7,0,12.1-5.4,12.1-12.1v-18.2c0-0.5,0.2-1,0.6-1.4l33.3-27.6c15.6-12.9,24.6-32,24.6-52.3v-35.8
			c0-2.8-2.3-5.1-5.1-5.1c-2.8,0-5.1,2.3-5.1,5.1v35.8c0,17.2-7.6,33.4-20.9,44.4l-33.3,27.6c-2.8,2.3-4.4,5.7-4.4,9.3v18.2
			c0,1-0.8,1.8-1.8,1.8h-75.7c-1,0-1.8-0.8-1.8-1.8v-16.8c0-4.9-3-9.3-7.6-11.1c-12-4.7-21.1-14.3-25.1-26.3h90.1
			c5.2,0,9.8-3.3,11.4-8.2l1.6-4.8c6.3-19.1,20.8-34.2,39.6-41.3c4.6-1.8,7.8-6.3,7.8-11.2v-70.4c0-10.1,8.2-18.3,18.3-18.3
			c1,0,1.8,0.8,1.8,1.8V265C366.3,267.8,368.6,270.1,371.5,270.1L371.5,270.1z M134.6,124.3c-3.8-3.8-3.8-10,0-13.8
			c3.8-3.8,10-3.8,13.8,0l22,22V160L134.6,124.3z M144.1,186.9c1.8-1.8,4.3-2.9,6.9-2.9c2.6,0,5.1,1,6.9,2.9l25.5,25.5
			c1.8,1.8,2.9,4.3,2.9,6.9s-1,5.1-2.9,6.9c0,0,0,0,0,0c-1.8,1.8-4.3,2.9-6.9,2.9c-2.2,0-4.4-0.8-6.1-2.1l-0.8-0.8
			c-0.2-0.2-0.4-0.3-0.6-0.5l-3.9-3.9c-0.2-0.2-0.4-0.5-0.6-0.7c-0.2-0.2-0.4-0.3-0.5-0.5l-20-20
			C140.3,196.9,140.3,190.7,144.1,186.9L144.1,186.9z M141.3,235.8c0-2.6,1-5.1,2.9-6.9c1.9-1.9,4.4-2.9,6.9-2.9
			c2.2,0,4.3,0.7,6.1,2.2l5.2,5.2c0.4,0.4,0.7,0.7,1.1,1l20,20c1.8,1.8,2.9,4.3,2.9,6.9s-1,5.1-2.9,6.9c-1.8,1.8-4.3,2.9-6.9,2.9
			c-2.6,0-5-1-6.9-2.8l0,0c0,0,0,0,0,0l-25.5-25.5C142.3,240.9,141.3,238.4,141.3,235.8z M144.1,284.9c-3.8-3.8-3.8-10,0-13.8
			c1.9-1.9,4.4-2.9,6.9-2.9c2.4,0,4.7,0.9,6.6,2.6c0,0,0,0,0,0l4.7,4.7c0,0,0,0,0,0l21,21c1.8,1.8,2.9,4.3,2.9,6.9
			c0,2.6-1,5.1-2.9,6.9c-1.8,1.8-4.3,2.9-6.9,2.9s-5.1-1-6.9-2.9L144.1,284.9z M336,302.8c0,0.7-0.4,1.4-1.1,1.6
			c-8.4,3.2-16,7.7-22.7,13.3h-74c-2.8,0-5.1,2.3-5.1,5.1s2.3,5.1,5.1,5.1h64c-5.7,7.1-10.1,15.2-13.1,24l-1.6,4.8
			c-0.2,0.7-0.9,1.2-1.6,1.2h-96.5l-0.2,0c-4.7-0.1-8.5-4-8.5-8.7v-21.4h35.1c2.8,0,5.1-2.3,5.1-5.1s-2.3-5.1-5.1-5.1h-25.3
			c0.1-0.1,0.1-0.1,0.2-0.2c3.8-3.8,5.9-8.8,5.9-14.2c0-5.4-2.1-10.4-5.9-14.2l-8.7-8.7c3.3-0.9,6.2-2.7,8.7-5.1
			c3.8-3.8,5.9-8.8,5.9-14.2c0-5.4-2.1-10.4-5.9-14.2l-8.6-8.6c3.2-0.9,6.2-2.7,8.6-5.1c3.8-3.8,5.9-8.8,5.9-14.2
			s-2.1-10.4-5.9-14.2l-10-10v-92.4c0-4.8,3.9-8.7,8.7-8.7h138c4.8,0,8.7,3.9,8.7,8.7v126.4c0,0.3,0,0.5,0.1,0.8
			c-0.1,0.8-0.1,1.6-0.1,2.5L336,302.8L336,302.8z"/>
		<g>
			<g>
				<path class="st3" d="M250.3,240c-3.3,0-6-2.7-6-6v-7h-31.7c-4.1,0-7.5-3.3-7.5-7.5v-39.1c0-4.1,3.3-7.5,7.5-7.5H304
					c4.1,0,7.5,3.3,7.5,7.5v39.1c0,4.1-3.3,7.5-7.5,7.5h-32.3l-18.1,12C252.6,239.7,251.5,240,250.3,240z M212.7,174.9
					c-3.1,0-5.6,2.5-5.6,5.6v39.1c0,3.1,2.5,5.6,5.6,5.6h33.6v8.9c0,2.3,1.8,4.1,4.1,4.1c0.8,0,1.6-0.2,2.3-0.7l18.5-12.3H304
					c3.1,0,5.6-2.5,5.6-5.6v-39.1c0-3.1-2.5-5.6-5.6-5.6H212.7z"/>
			</g>
			<g>
				<path class="st3" d="M232.2,209.8h-6.5c-1.8,0-3.3-1.5-3.3-3.3h-6.5c0,5.4,4.4,9.8,9.8,9.8h6.5c5.4,0,9.8-4.4,9.8-9.8
					c0-5.4-4.4-9.8-9.8-9.8h-6.5c-1.8,0-3.3-1.5-3.3-3.3s1.5-3.3,3.3-3.3h6.5c1.8,0,3.3,1.5,3.3,3.3h6.5c0-5.4-4.4-9.8-9.8-9.8h-6.5
					c-5.4,0-9.8,4.4-9.8,9.8s4.4,9.8,9.8,9.8h6.5c1.8,0,3.3,1.5,3.3,3.3C235.5,208.4,234,209.8,232.2,209.8z"/>
			</g>
			<g>
				<path class="st3" d="M258.3,216.3h9.8v-6.5h-9.8c-1.8,0-3.3-1.5-3.3-3.3v-3.3h13v-6.5h-13v-3.3c0-1.8,1.5-3.3,3.3-3.3h9.8v-6.5
					h-9.8c-5.4,0-9.8,4.4-9.8,9.8v13C248.6,212,252.9,216.3,258.3,216.3z"/>
			</g>
			<g>
				<path class="st3" d="M284.4,216.3h6.5c5.4,0,9.8-4.4,9.8-9.8v-13c0-5.4-4.4-9.8-9.8-9.8h-6.5c-5.4,0-9.8,4.4-9.8,9.8v13
					C274.7,212,279,216.3,284.4,216.3z M281.2,193.5c0-1.8,1.5-3.3,3.3-3.3h6.5c1.8,0,3.3,1.5,3.3,3.3v13c0,1.8-1.5,3.3-3.3,3.3
					h-6.5c-1.8,0-3.3-1.5-3.3-3.3V193.5z"/>
			</g>
		</g>
	</g>
</g>
</svg>
